<?xml version="1.0" encoding="UTF-8" standalone="no"?>
<svg
   xmlns:dc="http://purl.org/dc/elements/1.1/"
   xmlns:cc="http://creativecommons.org/ns#"
   xmlns:rdf="http://www.w3.org/1999/02/22-rdf-syntax-ns#"
   xmlns:svg="http://www.w3.org/2000/svg"
   xmlns="http://www.w3.org/2000/svg"
   xmlns:xlink="http://www.w3.org/1999/xlink"
   xmlns:sodipodi="http://sodipodi.sourceforge.net/DTD/sodipodi-0.dtd"
   xmlns:inkscape="http://www.inkscape.org/namespaces/inkscape"
   version="1.1"
   x="0"
   y="0"
   width="142.58719"
   height="280.28244"
   viewBox="0 0 142.58719 280.28244"
   id="svg17200"
   inkscape:version="0.91 r13725"
   sodipodi:docname="Caduceus_v2.svg">
  <metadata
     id="metadata17208">
    <rdf:RDF>
      <cc:Work
         rdf:about="">
        <dc:format>image/svg+xml</dc:format>
        <dc:type
           rdf:resource="http://purl.org/dc/dcmitype/StillImage" />
        <dc:title />
      </cc:Work>
    </rdf:RDF>
  </metadata>
  <defs
     id="defs17206">
    <linearGradient
       inkscape:collect="always"
       id="linearGradient12587">
      <stop
         style="stop-color:#d40000;stop-opacity:1;"
         offset="0"
         id="stop12589" />
      <stop
         style="stop-color:#d40000;stop-opacity:0;"
         offset="1"
         id="stop12591" />
    </linearGradient>
    <linearGradient
       inkscape:collect="always"
       id="linearGradient31544">
      <stop
         style="stop-color:#6ddc14;stop-opacity:1;"
         offset="0"
         id="stop31546" />
      <stop
         style="stop-color:#6ddc14;stop-opacity:0"
         offset="1"
         id="stop31548" />
    </linearGradient>
    <marker
       inkscape:stockid="TriangleOutL"
       orient="auto"
       refY="0"
       refX="0"
       id="TriangleOutL"
       style="overflow:visible"
       inkscape:isstock="true">
      <path
         id="path26319"
         d="m 5.77,0 -8.65,5 0,-10 8.65,5 z"
         style="fill:#000000;fill-opacity:1;fill-rule:evenodd;stroke:#000000;stroke-width:1pt;stroke-opacity:1"
         transform="scale(0.8,0.8)"
         inkscape:connector-curvature="0" />
    </marker>
    <linearGradient
       inkscape:collect="always"
       xlink:href="#linearGradient31544"
       id="linearGradient31550"
       x1="151.30635"
       y1="42.438919"
       x2="151.90443"
       y2="104.90215"
       gradientUnits="userSpaceOnUse"
       gradientTransform="translate(-2.182124,21.942502)" />
    <linearGradient
       inkscape:collect="always"
       xlink:href="#linearGradient12587"
       id="linearGradient12593"
       x1="148.59032"
       y1="297.58356"
       x2="149.1228"
       y2="234.71379"
       gradientUnits="userSpaceOnUse"
       gradientTransform="translate(0.054026,-3.6099411)" />
  </defs>
  <sodipodi:namedview
     pagecolor="#ffffff"
     bordercolor="#666666"
     borderopacity="1"
     objecttolerance="10"
     gridtolerance="10"
     guidetolerance="10"
     inkscape:pageopacity="0"
     inkscape:pageshadow="2"
     inkscape:window-width="1902"
     inkscape:window-height="1106"
     id="namedview17204"
     showgrid="false"
     showguides="true"
     inkscape:zoom="14.06"
     inkscape:cx="75.91257"
     inkscape:cy="80.094542"
     inkscape:window-x="8"
     inkscape:window-y="0"
     inkscape:window-maximized="0"
     inkscape:current-layer="layer2"
     fit-margin-top="0"
     fit-margin-left="0"
     fit-margin-right="0"
     fit-margin-bottom="0" />
  <g
     inkscape:groupmode="layer"
     id="layer2"
     inkscape:label="caduceus"
     transform="translate(-78.206405,-38.712028)">
    <g
       id="layer1"
       transform="matrix(0.49147257,0,0,0.49147257,77.162026,90.275454)"
       style="fill:#494949;fill-opacity:1">
      <path
         style="fill:#494949;fill-opacity:1"
         d="M 49.457031 54.007812 C 47.94579 53.969588 46.346092 54.122388 44.683594 54.482422 C 40.854039 55.311536 40.224538 55.650346 31.888672 61.367188 C 28.152497 63.929725 23.128422 67.364858 20.726562 69.001953 C 14.807758 73.036451 6.0356889 77.638793 2.7207031 78.447266 L 0 79.109375 L 1.3046875 80.419922 C 3.3570803 82.482141 7.2278393 84.275027 9.5878906 84.255859 C 11.079018 84.244064 12.472465 84.707261 14.457031 85.875 C 16.319221 86.970492 17.959731 87.539662 19.423828 87.597656 C 20.625479 87.645821 22.68579 88.182094 24.001953 88.789062 C 25.684755 89.564148 27.21831 89.867079 29.166016 89.808594 C 30.901897 89.756498 32.907374 90.092632 34.539062 90.710938 C 37.03381 91.655548 37.246803 91.661988 39.619141 90.853516 L 42.095703 90.009766 L 42.853516 91.804688 C 44.364794 95.388014 45.378351 96.913163 47.193359 98.330078 L 49.044922 99.773438 L 48.328125 101.56445 C 46.719535 105.5847 48.987324 112.57372 53.195312 116.56055 C 54.712521 117.99761 56.150295 119.17044 56.390625 119.16602 C 57.283631 119.14881 56.808204 120.49115 55.439453 121.85352 C 54.662926 122.6266 53.535156 124.40351 52.933594 125.80273 C 51.985543 128.00846 51.859088 129.09611 51.978516 133.99609 C 52.100401 138.99928 52.266851 139.95477 53.431641 142.33398 C 54.15558 143.81184 55.576919 145.97436 56.589844 147.14062 L 58.431641 149.26172 L 57.027344 150.81055 C 56.254749 151.66276 55.006351 153.47746 54.253906 154.84375 C 53.0036 157.11239 52.893414 157.73257 52.990234 161.99609 C 53.110154 167.29024 53.60418 168.52532 57.5625 173.42383 C 58.83738 175.00146 59.885219 176.5158 59.890625 176.78906 C 59.89554 177.06232 59.461978 177.77057 58.925781 178.36328 C 56.365701 181.19465 57.286082 189.64916 60.527344 193.07227 C 62.868228 195.54437 62.866453 195.53915 61.550781 197.55664 C 60.527535 199.12591 60.331687 200.0049 60.384766 202.78516 C 60.485518 208.07782 62.317096 211.00036 66.722656 212.90039 L 66.783203 212.92578 C 66.930276 212.86553 67.100007 212.82227 67.318359 212.82227 L 67.972656 212.82227 L 68.425781 212.82227 L 68.847656 212.82227 L 69.345703 212.82227 L 69.767578 212.82227 L 69.980469 212.82227 C 69.963708 212.3308 69.945191 211.85926 69.931641 211.31641 C 69.747338 203.91532 69.823549 200.01811 70.152344 200.01172 C 70.478682 200.00533 70.728605 203.8538 70.865234 211.0293 C 70.877961 211.69763 70.879105 212.2865 70.886719 212.92578 C 70.909701 212.92394 70.931708 212.91603 70.955078 212.91797 C 71.104883 212.87617 71.189635 212.85061 71.373047 212.82031 C 71.477471 212.80301 71.588176 212.83291 71.693359 212.82031 L 72.103516 212.82031 L 72.515625 212.82031 L 72.519531 212.74609 L 73.945312 212.7207 C 78.256051 212.63863 81.625198 208.13266 81.519531 202.5918 C 81.471367 200.04253 81.217608 199.10021 80.195312 197.6543 C 79.50037 196.67135 78.930192 195.74657 78.927734 195.59766 C 78.924786 195.44825 79.766257 194.33017 80.796875 193.11328 C 84.727181 188.4728 85.622644 183.3587 83.353516 178.5 C 82.634 176.95923 81.810445 175.70358 81.525391 175.70898 C 80.275576 175.73258 81.196838 174.19796 83.894531 171.75977 C 88.106451 167.95331 88.870143 166.13056 88.791016 160.08594 C 88.720735 154.73675 88.398163 153.94134 84.755859 150.19141 L 83.214844 148.60547 L 85.507812 146.57031 C 90.065762 142.52205 91.620085 138.76895 91.474609 132.16602 C 91.381721 127.9364 90.379895 125.48884 87.294922 121.94336 L 85.222656 119.56055 L 88.423828 116.11523 C 92.442599 111.79077 93.981988 108.38496 93.898438 103.99414 C 93.843851 101.12542 93.947604 100.79587 95.173828 99.972656 C 97.210982 98.604397 99.167631 96.334718 99.896484 94.492188 C 100.25772 93.578507 100.77267 92.690576 101.04102 92.517578 C 101.4799 92.234981 104.20502 91.952621 112.33594 91.353516 C 116.28639 91.062564 119.27873 90.414082 120.49414 89.583984 C 121.25347 89.065481 122.20755 88.937143 123.78125 89.142578 C 125.58692 89.378485 126.51466 89.184289 128.76953 88.099609 C 130.2931 87.366824 132.40572 86.750619 133.46484 86.730469 C 134.52397 86.710318 136.23452 86.242347 137.26562 85.691406 C 139.55622 84.46764 142.61541 80.865809 142.58789 79.423828 C 142.56921 78.451204 142.35913 78.385768 139.99023 78.607422 C 137.53877 78.836448 137.1029 78.675219 130.95703 75.302734 C 127.40516 73.353554 121.73337 69.744019 118.35352 67.28125 C 104.23498 56.992272 101.80498 55.60125 96.044922 54.521484 C 89.770783 53.345391 85.560827 54.952162 82.509766 59.6875 C 80.050928 63.503293 80.408401 69.553762 83.310547 73.230469 C 83.961257 74.05516 84.49656 74.869013 84.5 75.039062 C 84.515727 75.860838 81.349737 76.947924 79.224609 76.851562 L 76.912109 76.746094 L 76.908203 76.681641 L 76.742188 76.681641 L 76.542969 76.681641 L 76.306641 76.681641 L 76.111328 76.681641 C 76.022008 76.683526 75.944479 76.673226 75.869141 76.644531 C 75.861939 76.645832 75.854813 76.647525 75.847656 76.646484 C 75.707662 76.626664 75.710425 76.626569 75.628906 76.601562 C 75.626106 76.601987 75.618041 76.600916 75.619141 76.603516 C 75.622041 76.610216 75.647095 76.605975 75.640625 76.609375 C 75.616815 76.621775 75.545466 76.618541 75.519531 76.619141 C 75.452381 76.616441 75.385545 76.614734 75.318359 76.615234 C 75.211234 76.621934 75.10309 76.602078 75.007812 76.548828 C 74.997623 76.543128 75.028613 76.559263 75.039062 76.564453 C 75.191344 76.585143 74.926652 76.584554 74.90625 76.583984 C 74.82972 76.581384 74.754288 76.583743 74.677734 76.583984 C 74.64642 76.569802 74.615749 76.554312 74.583984 76.541016 L 74.582031 76.541016 C 74.595428 76.54304 74.59787 76.544139 74.554688 76.548828 C 74.484102 76.555913 74.412522 76.549692 74.341797 76.548828 C 74.326344 76.553337 74.322434 76.557362 74.3125 76.560547 C 74.300642 76.56435 74.298246 76.561708 74.289062 76.564453 C 74.266278 76.581184 74.239973 76.587997 74.216797 76.599609 C 74.213686 79.38481 74.156924 81.822918 74.068359 82.113281 C 73.970065 82.437653 73.744798 88.457753 73.568359 95.490234 C 73.277408 107.11602 73.160284 110.54108 72.990234 112.33594 C 72.958289 112.67456 72.654539 112.92985 72.316406 112.9043 C 71.532999 112.84434 68.922775 111.92174 68.107422 111.41602 C 67.618407 111.11278 67.449603 106.57997 67.320312 90.353516 C 67.275944 84.74334 67.253302 79.676188 67.25 75.914062 C 67.239871 75.915262 67.214281 75.917272 67.207031 75.917969 C 67.124464 75.925905 67.041722 75.932858 66.958984 75.939453 C 66.955958 75.940995 66.956278 75.941806 66.953125 75.943359 C 66.855035 75.991679 66.818921 75.996365 66.691406 76.015625 C 66.686106 76.016428 66.668888 76.01383 66.673828 76.011719 C 66.655134 76.022558 66.635601 76.03167 66.617188 76.042969 C 66.609683 76.047542 66.628865 76.041538 66.642578 76.037109 C 66.614658 76.046409 66.586514 76.055113 66.558594 76.064453 C 66.583904 76.035123 66.567434 76.057031 66.496094 76.087891 C 66.443744 76.110491 66.332743 76.149959 66.292969 76.162109 C 66.284369 76.164709 66.276198 76.161463 66.267578 76.164062 C 66.241078 76.171883 66.215283 76.183529 66.189453 76.193359 C 65.848918 76.321326 65.4825 76.363628 65.126953 76.431641 C 65.065583 76.437841 65.004887 76.446832 64.943359 76.451172 C 64.852979 76.457539 64.76094 76.453862 64.669922 76.451172 C 64.238241 76.746967 63.659734 76.93247 62.847656 77.080078 C 61.467601 77.331221 60.834054 77.143497 59.544922 76.099609 C 58.667643 75.389432 57.94583 74.607064 57.941406 74.361328 C 57.936492 74.116083 58.660246 73.070696 59.548828 72.039062 C 61.64889 69.600867 62.423139 67.018969 61.927734 64.097656 C 60.884307 57.938921 56.005744 54.173486 49.457031 54.007812 z M 66.673828 76.011719 C 66.686738 76.006219 66.701094 76.006806 66.714844 76.003906 C 66.737458 75.990588 66.760477 75.977981 66.783203 75.964844 C 66.770912 75.968631 66.758442 75.969415 66.746094 75.972656 C 66.721974 75.985752 66.697566 75.997955 66.673828 76.011719 z M 74.582031 76.541016 C 74.546785 76.526252 74.512633 76.509173 74.478516 76.492188 C 74.488826 76.501283 74.497945 76.512562 74.509766 76.519531 C 74.533895 76.533762 74.565017 76.538528 74.582031 76.541016 z M 92.160156 55.382812 C 97.661209 55.205074 102.6894 57.827762 113.41797 65.628906 C 123.67598 73.087985 132.95363 78.509351 137.76367 79.851562 C 140.00135 80.475766 140.17055 81.247249 138.34375 82.498047 C 134.9575 84.816814 126.96242 83.036356 120.3418 78.490234 C 112.18139 72.886956 108.24676 69.527267 107.39258 67.433594 C 106.61507 65.527663 104.97189 64.455455 105.39062 66.126953 C 106.25791 69.59036 104.57098 73.759951 101.31055 76.212891 C 99.434989 77.623417 98.791782 77.816355 95.445312 77.974609 C 93.377687 78.072412 91.604658 78.160571 91.503906 78.171875 C 91.403646 78.182687 91.604684 78.521804 91.951172 78.923828 C 92.46132 79.51507 92.42949 80.077219 91.783203 81.871094 C 90.790429 84.625798 87.85649 87.314275 84.992188 88.09375 C 82.477289 88.778371 80.223486 88.817364 77.990234 88.21875 L 76.384766 87.789062 L 76.291016 82.835938 L 76.197266 77.882812 L 77.556641 78.259766 C 81.319846 79.303162 84.147377 78.205837 86.335938 74.855469 L 87.408203 73.214844 L 85.537109 71.359375 C 82.571072 68.41742 81.569258 64.439312 82.929688 61.001953 C 83.671811 59.125511 86.632896 56.271791 88.199219 55.923828 C 89.595032 55.613647 90.890683 55.423862 92.160156 55.382812 z M 49.613281 55.619141 C 53.348528 55.73169 56.086853 56.87556 58.267578 59.205078 C 59.904182 60.953246 60.155503 61.531754 60.195312 63.634766 C 60.250882 66.535437 59.27116 68.731707 57.070312 70.646484 C 54.782999 72.636457 54.940277 74.052773 57.746094 76.753906 L 60.003906 78.927734 L 62.943359 78.564453 L 65.880859 78.201172 L 65.951172 82.246094 C 66.038163 87.253708 65.753261 88.463433 64.423828 88.755859 C 61.608673 89.375115 60.778939 89.426439 58.878906 89.099609 C 56.302607 88.65581 53.207191 86.808632 51.753906 84.847656 C 50.496719 83.150601 49.710523 79.476186 50.601562 79.458984 C 50.907291 79.453087 51.153844 79.227341 51.148438 78.957031 C 51.14349 78.686721 50.419277 78.478905 49.541016 78.494141 C 43.581386 78.59735 38.26731 73.67243 38.158203 67.947266 C 38.101192 64.956655 37.464965 64.450687 36.318359 66.480469 C 34.918154 68.958965 19.67587 78.951568 13.947266 81.146484 C 10.555613 82.445938 6.7486435 82.454152 4.1757812 81.167969 L 2.7695312 80.464844 L 4.7128906 79.558594 C 13.316118 75.543754 17.914217 72.859878 26.763672 66.691406 C 28.997415 65.134421 32.0547 63.002406 33.556641 61.955078 C 35.058581 60.90775 38.126513 59.092084 40.375 57.919922 C 43.90279 56.08034 44.940902 55.766526 47.951172 55.632812 C 48.526748 55.607194 49.079675 55.603062 49.613281 55.619141 z M 35.271484 70.410156 C 35.571774 70.40475 37.296786 74.405395 37.310547 75.138672 C 37.31841 75.552 26.579012 82.650659 23.960938 83.962891 C 20.961447 85.466305 18.833882 85.736883 15.992188 84.974609 C 14.491689 84.572093 13.726805 83.602194 14.892578 83.580078 C 16.530165 83.548624 23.228432 79.508406 28.650391 75.28125 C 32.081361 72.607148 35.061134 70.414088 35.271484 70.410156 z M 107.53125 72.072266 C 108.21577 71.982757 109.46866 72.886092 112.08594 75.144531 C 115.63978 78.21132 125.54509 84.914669 126.49609 84.896484 C 127.26967 84.88174 127.04199 86.235128 126.21484 86.570312 C 122.89888 87.915997 115.27976 84.297257 109.26758 78.523438 C 106.6898 76.047857 106.15499 74.76438 106.875 72.775391 C 107.02597 72.358253 107.22011 72.112951 107.53125 72.072266 z M 76.511719 72.933594 C 76.474152 72.933625 76.4085 72.947615 76.328125 72.966797 C 76.334637 72.967026 76.341144 72.966552 76.347656 72.966797 C 76.400709 72.956154 76.455498 72.942262 76.507812 72.9375 C 76.505843 72.937247 76.514419 72.933592 76.511719 72.933594 z M 38.224609 76.253906 C 38.438891 76.249974 39.339946 76.966937 40.226562 77.847656 L 41.837891 79.449219 L 38.082031 82.367188 C 36.015389 83.972828 33.335484 85.815601 32.126953 86.460938 C 29.663201 87.77661 27.749706 88.196959 25.388672 87.943359 C 23.232582 87.711876 23.362822 87.08761 25.839844 85.777344 C 28.473154 84.384019 32.051216 81.684781 35.292969 78.644531 C 36.691208 77.333774 38.010327 76.257838 38.224609 76.253906 z M 75.722656 76.556641 C 75.755336 76.579141 75.784953 76.60701 75.820312 76.625 C 75.829193 76.629508 75.839774 76.629013 75.849609 76.630859 C 75.807998 76.611988 75.765344 76.599147 75.722656 76.556641 z M 104.71484 77.664062 C 105.43893 77.732201 106.33471 78.625769 108.90234 81.101562 C 110.78026 82.91218 113.24762 84.674575 116.79688 86.740234 C 117.54834 87.177645 118.16663 87.751704 118.17188 88.015625 C 118.19006 88.960727 113.07447 88.560706 110.4043 87.408203 C 107.51788 86.16232 101.82291 81.253319 101.79883 79.990234 C 101.79047 79.549383 102.45415 78.776227 103.27344 78.271484 C 103.90799 77.880026 104.28039 77.623199 104.71484 77.664062 z M 44.025391 79.691406 C 44.341331 79.67263 44.687021 79.723264 45.136719 79.798828 C 48.415824 80.349769 48.290332 81.467225 44.560547 84.935547 C 43.301394 86.106235 41.491058 87.47865 40.537109 87.984375 C 38.549594 89.038092 36.257187 89.563534 35 89.253906 C 33.777708 88.952634 33.913329 88.381274 35.455078 87.339844 C 36.188847 86.844439 38.250607 84.874719 40.037109 82.962891 C 42.40355 80.430578 43.07757 79.747734 44.025391 79.691406 z M 97.681641 80.037109 C 99.096099 80.01057 99.514663 80.367679 101.59766 83.375 C 102.88089 85.22736 104.70381 87.203393 105.65039 87.763672 C 107.54305 88.884229 107.78494 89.417816 106.61523 89.892578 C 106.1906 90.065085 105.80743 90.183281 105.76172 90.15625 C 105.71552 90.12971 105.01017 89.959189 104.19531 89.777344 C 101.67799 89.214608 99.800647 88.047692 97.339844 85.515625 C 94.103988 82.184915 94.234452 80.102967 97.681641 80.037109 z M 48.425781 84.125 C 48.647137 84.109997 48.797347 84.297753 48.992188 84.623047 C 50.297047 86.803219 53.619976 89.81333 55.742188 90.738281 C 57.49183 91.501047 58.974954 91.713829 62.080078 91.644531 L 66.134766 91.554688 L 66.160156 92.894531 C 66.192593 94.607805 65.808817 94.988722 64.646484 94.394531 C 64.13437 94.133068 62.326944 93.81527 60.628906 93.689453 C 58.095857 93.501219 57.087699 93.667235 55.011719 94.607422 C 53.619868 95.23749 52.232447 96.065391 51.927734 96.447266 C 51.083876 97.504423 50.385499 97.318417 48.091797 95.429688 C 46.087572 93.77929 43.996751 90.676336 43.970703 89.3125 C 43.964314 88.963554 44.965157 87.553832 46.195312 86.181641 C 47.49099 84.736404 48.056855 84.150006 48.425781 84.125 z M 93.925781 85.597656 C 94.13564 85.683664 95.403383 86.892827 96.742188 88.283203 C 99.140574 90.773495 99.165224 90.828361 98.384766 92.070312 C 97.948829 92.763813 96.662658 94.341606 95.525391 95.574219 C 94.388615 96.806832 93.142177 97.810572 92.757812 97.806641 C 92.373481 97.802709 91.222956 97.087686 90.199219 96.216797 C 87.495137 93.916705 83.237969 92.814172 80.132812 93.609375 C 76.205455 94.615419 76.270252 94.629493 76.234375 92.734375 C 76.204395 91.162154 76.306156 91.035303 77.433594 91.238281 C 78.111826 91.360658 80.213791 91.421211 82.105469 91.373047 C 86.090328 91.271804 88.104856 90.41629 91.357422 87.441406 C 92.559564 86.341982 93.715922 85.511649 93.925781 85.597656 z M 82.222656 94.392578 C 85.799102 94.347854 88.400991 95.614884 90.865234 98.601562 C 92.350464 100.40134 92.450304 100.74487 92.283203 103.49023 C 91.989794 108.31404 88.102781 114.10968 83.478516 116.61914 C 81.943155 117.45268 81.428883 117.3737 78.394531 115.84375 C 75.018115 114.14178 74.700119 113.22047 77.193359 112.35352 C 81.22196 110.95331 85.660833 107.12554 87.361328 103.58398 C 87.948638 102.36022 88.509536 98.40034 88.09375 98.408203 C 87.926649 98.411643 87.116185 99.002649 86.292969 99.722656 C 84.962061 100.88646 84.470013 101.01555 81.869141 100.87695 C 79.318889 100.74131 78.754844 100.51915 77.482422 99.148438 C 76.679356 98.283413 76.085918 97.207031 76.164062 96.755859 C 76.392139 95.435273 78.963702 94.432879 82.222656 94.392578 z M 60.078125 94.875 C 61.527933 94.862499 62.974351 95.115141 64.330078 95.646484 C 65.651648 96.164496 65.77368 97.19523 64.683594 98.636719 C 62.611545 101.37619 57.687895 102.09351 55.671875 99.949219 C 54.223997 98.409435 53.855584 98.901423 54.138672 101.99609 C 54.353445 104.34238 54.713751 105.29816 55.929688 106.75391 C 58.165888 109.43047 62.56836 111.73969 69.185547 113.70312 C 72.470058 114.67805 76.445415 116.26174 78.234375 117.31055 C 79.988932 118.3392 81.576912 119.17727 81.763672 119.17383 C 82.463529 119.16056 86.737911 123.88157 87.697266 125.72656 C 88.398106 127.07418 88.701561 128.59529 88.716797 130.83984 C 88.75464 136.37628 86.880757 140.40865 82.835938 143.49805 C 81.573803 144.46182 80.240681 145.24758 79.871094 145.24414 C 79.039031 145.23529 76.516391 143.98491 75.345703 143 C 74.074264 141.93056 74.24019 141.16051 76.126953 139.37695 C 79.514674 136.17403 80.615242 131.40589 78.664062 128.37891 C 77.243707 126.17563 75.618144 125.1683 66.597656 120.90625 C 55.88208 115.84359 52.722745 113.57978 50.453125 109.33984 C 48.045892 104.84336 49.134109 100.02731 53.220703 97.099609 C 55.237584 95.65468 57.661779 94.895835 60.078125 94.875 z M 82.402344 95.566406 C 80.830123 95.596386 80.44701 96.377215 81.839844 96.712891 C 82.315098 96.827404 82.741402 96.946091 82.787109 96.976562 C 82.833308 97.007067 83.217959 96.892227 83.640625 96.720703 C 84.802958 96.249381 84.037473 95.535443 82.402344 95.566406 z M 59.365234 96.005859 C 57.908018 96.033873 57.129762 96.613765 57.75 97.210938 C 57.934794 97.388851 58.390165 97.412601 58.761719 97.261719 C 59.132781 97.111328 59.749464 96.981981 60.132812 96.974609 C 60.515703 96.967237 60.825752 96.73906 60.820312 96.46875 C 60.815398 96.19844 60.159946 95.990624 59.365234 96.005859 z M 75.878906 99.923828 L 77.646484 101.41992 C 78.618126 102.24216 80.182368 103.10735 81.123047 103.34375 C 82.064217 103.57966 82.784582 104.02728 82.722656 104.33789 C 82.661222 104.6485 82.942191 104.89654 83.347656 104.88867 C 83.75263 104.8813 84.087852 105.12256 84.09375 105.42383 C 84.11046 106.30307 80.663845 109.35339 78.441406 110.42578 C 75.993873 111.60679 75.899337 111.61569 75.535156 110.71875 C 74.923764 109.2114 75.622058 108.19826 78.105469 106.99219 C 81.245487 105.46813 81.447872 104.7092 78.421875 105.80469 C 77.199091 106.2475 76.08634 106.50232 75.949219 106.37109 C 75.812589 106.23938 75.740407 104.73423 75.789062 103.02734 L 75.878906 99.923828 z M 66.058594 100.30273 C 66.388863 100.29635 66.3606 104.83653 66.021484 106.32422 C 65.782137 107.37302 65.887803 107.39246 62.261719 105.60547 L 59.322266 104.1582 L 60.992188 103.44727 C 61.910258 103.05605 63.35289 102.1889 64.201172 101.52148 C 65.048962 100.85406 65.885595 100.30568 66.058594 100.30273 z M 58.820312 105.35547 C 60.007252 105.33286 65.996681 108.66337 66.357422 109.54688 C 67.279424 111.80323 62.387567 109.9277 59.324219 106.84961 C 58.024765 105.54377 57.967608 105.37169 58.820312 105.35547 z M 58.222656 120.35938 L 61.039062 121.71289 C 64.310828 123.28511 64.792324 124.05118 63.462891 125.56836 C 61.136751 128.22428 60.861175 131.16062 62.539062 135.375 C 63.42178 137.59203 64.003095 138.23165 66.679688 139.92969 C 68.392961 141.01682 70.576319 142.27975 71.53125 142.73633 C 73.57381 143.71288 80.730016 148.38376 82.378906 149.81641 C 83.009466 150.36391 84.234605 152.18733 85.101562 153.86719 C 86.53473 156.64401 86.664541 157.24503 86.515625 160.49219 C 86.294462 165.32484 84.253108 169.25548 80.841797 171.41992 C 79.029246 172.56997 78.648246 172.5213 76.121094 170.82031 C 73.905044 169.32869 73.451153 168.06431 74.732422 166.95898 C 76.018606 165.84924 77.318615 162.65237 77.279297 160.69336 C 77.259146 159.66913 76.813942 158.15768 76.291016 157.33594 C 75.382774 155.90821 70.336358 152.43958 64.105469 148.96094 C 59.99086 146.6633 56.603126 143.27897 54.783203 139.64453 C 53.448364 136.97977 53.214774 135.97215 53.150391 132.5918 C 53.0634 128.03486 53.915607 125.46156 56.535156 122.35742 L 58.222656 120.35938 z M 68.796875 125.91602 C 69.444651 125.86241 70.512619 126.31104 71.652344 127.15625 C 72.81271 128.01682 72.82231 128.08822 72.589844 134.50391 C 72.342633 141.31424 72.283809 141.44618 70.009766 140.25977 C 68.807132 139.63265 68.755489 139.40872 68.361328 133.08789 C 68.137217 129.49965 68.11106 126.3744 68.302734 126.14062 C 68.412333 126.00719 68.58095 125.93389 68.796875 125.91602 z M 66.113281 128.32031 C 66.695185 128.30901 66.85012 129.20256 66.921875 132.97461 C 67.021644 138.24221 66.528863 138.85712 64.941406 135.44531 C 64.21845 133.89177 64.00104 132.75719 64.216797 131.65039 C 64.64831 129.43434 65.274338 128.33604 66.113281 128.32031 z M 75.330078 129.84375 C 75.644813 129.85368 76.229474 130.39496 76.730469 131.16602 C 77.867736 132.91713 77.811332 134.83378 76.5625 136.82031 C 76.166865 137.45038 75.627202 137.97116 75.363281 137.97656 C 74.731248 137.98836 74.588229 130.27605 75.212891 129.87305 C 75.245758 129.85185 75.285116 129.84233 75.330078 129.84375 z M 59.527344 150.39062 C 60.111294 150.4424 60.849073 150.85471 61.984375 151.53516 C 66.480366 154.23088 66.443219 154.1747 65.111328 156.2207 C 63.775506 158.27162 63.623443 161.55662 64.765625 163.66602 C 65.692051 165.37732 69.178731 168.3343 72.785156 170.4668 C 79.033739 174.16169 82.013576 178.11395 82.103516 182.82422 C 82.163967 186.00208 80.934257 188.77918 78.425781 191.12891 C 75.237599 194.11559 73.480967 193.54966 73.404297 189.51172 C 73.37874 188.16852 73.68859 186.61136 74.117188 185.92969 C 75.815225 183.22708 72.813629 179.39068 66.699219 176.44922 C 64.802626 175.53655 62.364621 173.75362 60.503906 171.91797 C 57.938419 169.38639 57.242321 168.32116 56.244141 165.4082 C 54.720576 160.96136 54.889585 157.22868 56.779297 153.59375 C 58.01105 151.22424 58.554094 150.30489 59.527344 150.39062 z M 68.830078 155.77148 L 70.318359 156.50586 C 71.935796 157.30352 71.967442 157.44806 71.943359 164.09375 C 71.93697 165.85126 71.771286 167.45812 71.576172 167.66602 C 71.380566 167.8744 70.727067 167.60166 70.123047 167.06055 C 69.128306 166.16803 69.016691 165.59626 68.927734 160.92383 L 68.830078 155.77148 z M 67.275391 159.52344 C 67.358153 159.53173 67.44631 159.5767 67.537109 159.66406 C 67.876717 159.99138 67.899369 160.78641 67.605469 162.04688 C 67.17199 163.90415 67.157744 163.91411 66.777344 162.62891 C 66.352896 161.19473 66.696055 159.46542 67.275391 159.52344 z M 74.570312 160.625 C 74.829044 160.5393 75.066068 161.12726 75.042969 162.4707 C 75.027242 163.36862 74.756932 164.37045 74.441406 164.69531 C 73.998589 165.1514 73.891563 164.72571 73.972656 162.82617 C 74.030896 161.47118 74.311614 160.7107 74.570312 160.625 z M 61.21875 177.56836 C 61.656652 177.5605 62.944272 178.11906 64.082031 178.80859 L 66.150391 180.0625 L 65.996094 182.96094 C 65.859956 185.51807 66.009006 186.08694 67.253906 187.8125 C 68.02945 188.88784 69.577704 190.45791 70.695312 191.30078 C 71.812954 192.14415 73.155745 193.15905 73.679688 193.55469 C 80.001499 198.32787 81.282073 202.22524 78.222656 207.39258 C 77.664343 208.33571 76.846131 209.41455 76.404297 209.79102 C 75.683798 210.40536 75.633317 210.34752 75.931641 209.24023 C 76.57891 206.84087 76.752815 204.35106 76.394531 202.62305 C 75.961544 200.53576 73.076695 197.52818 70.589844 196.57227 C 65.831898 194.7435 61.244594 190.90686 59.746094 187.50391 C 58.183702 183.95597 59.125077 177.60866 61.21875 177.56836 z M 69.767578 182.32227 C 70.987905 182.29917 71.493349 184.01274 71.464844 188.06641 C 71.449608 190.21906 71.105884 190.5944 70.064453 189.5918 C 69.37246 188.92536 69.103599 182.33504 69.767578 182.32227 z M 67.998047 182.84766 C 68.074041 182.84624 68.134568 183.04935 68.240234 183.45703 C 68.36212 183.92786 68.37763 184.70297 68.273438 185.17773 C 68.093526 186.00046 68.065404 185.99941 67.693359 185.1875 C 67.478586 184.71814 67.463076 183.94597 67.660156 183.46875 C 67.830451 183.05591 67.922053 182.84907 67.998047 182.84766 z M 64.158203 196.75977 C 64.369575 196.75762 64.604173 196.79402 64.878906 196.85742 C 66.766161 197.29287 66.984017 198.32198 65.535156 199.94531 C 64.059264 201.59912 63.612777 203.76231 64.066406 207.05469 C 64.248743 208.37822 64.315596 209.46092 64.214844 209.46289 C 64.114583 209.46486 63.527459 208.68104 62.908203 207.7207 C 62.138066 206.52593 61.696034 204.94469 61.509766 202.70898 C 61.268944 199.81569 61.370341 199.27933 62.388672 197.99609 C 63.095287 197.10591 63.524088 196.76619 64.158203 196.75977 z M 67.671875 201.15625 C 68.184355 201.17097 68.475988 202.52474 68.564453 205.23828 C 68.634734 207.38012 68.558204 209.68797 68.392578 210.36719 L 68.091797 211.60156 L 67.291016 210.13672 C 65.953719 207.68575 65.611858 204.38875 66.507812 202.57227 C 66.976895 201.62127 67.364387 201.14742 67.671875 201.15625 z M 73.25 202.50195 C 73.444003 202.46548 73.704634 202.64723 74.054688 202.98438 C 74.790913 203.69357 74.939434 208.47792 74.265625 209.79688 C 73.995807 210.32521 73.506038 210.76265 73.177734 210.76953 C 72.743273 210.77887 72.602162 209.64132 72.660156 206.60156 C 72.714894 203.72175 72.823194 202.5822 73.25 202.50195 z M 71.621094 215.5957 C 71.626111 215.60077 71.629967 215.60617 71.634766 215.61133 C 71.692699 215.60713 71.759794 215.59997 71.818359 215.5957 L 71.621094 215.5957 z "
         transform="matrix(2.0347016,0,0,2.0347016,2.1249996,-104.91618)"
         id="path16479" />
    </g>
    <path
       style="opacity:1;fill:#ffffff;fill-opacity:1;stroke:#600000;stroke-width:0.39293599;stroke-opacity:0"
       d="m 154.65625,209.41523 c -2.40863,-1.84924 -2.67833,-2.42415 -1.65071,-3.51876 2.19002,-2.33282 3.12068,-6.9462 1.88378,-9.3381 -0.84186,-1.62798 -3.1609,-3.38419 -9.8295,-7.44386 -6.8908,-4.19496 -9.97023,-7.08041 -12.0352,-11.2771 -1.26387,-2.5686 -1.3242,-2.89063 -1.31547,-7.02125 0.008,-3.90969 0.10996,-4.52187 1.04952,-6.31775 0.5722,-1.09371 1.64184,-2.70848 2.37697,-3.58838 l 1.33661,-1.59981 2.48867,1.23076 c 3.31459,1.63921 3.58578,2.13416 2.23632,4.08143 -2.03669,2.93894 -2.17366,5.14594 -0.58457,9.41909 0.93935,2.52595 2.48172,3.89326 7.65637,6.78734 4.8818,2.7303 11.45717,7.06575 12.58649,8.29887 0.47528,0.51896 1.492,2.14813 2.25938,3.62037 1.19455,2.29176 1.39457,3.0542 1.39058,5.30056 -0.005,3.0666 -0.75051,6.16786 -1.94685,8.10357 -1.18667,1.92008 -4.26977,4.54006 -5.34258,4.54006 -0.49306,0 -1.64497,-0.57467 -2.55981,-1.27704 z"
       id="path12719"
       inkscape:connector-curvature="0" />
    <path
       style="opacity:1;fill:#ffffff;fill-opacity:1;stroke:#600000;stroke-width:0.39293599;stroke-opacity:0"
       d="m 154.65625,209.41523 c -2.40863,-1.84924 -2.67833,-2.42415 -1.65071,-3.51876 2.33248,-2.48457 3.16837,-7.21261 1.70069,-9.61965 -0.8786,-1.44093 -4.50996,-4.07867 -11.16136,-8.10735 -5.50883,-3.33663 -8.76868,-6.54613 -10.6226,-10.45851 -1.14012,-2.40604 -1.22164,-2.86988 -1.21295,-6.90169 0.0104,-4.8133 0.39766,-5.98813 3.17421,-9.62899 l 1.4638,-1.91945 1.40923,0.58513 c 2.10184,0.8727 4.35624,2.45482 4.35624,3.05718 0,0.29196 -0.37371,1.00594 -0.83048,1.58663 -2.01678,2.56391 -2.16391,6.23595 -0.40882,10.20361 0.89382,2.02064 2.50036,3.31395 8.11568,6.53335 6.00058,3.44028 10.87338,6.76581 12.18295,8.31449 0.60823,0.71928 1.63178,2.42789 2.27455,3.79691 1.09355,2.32909 1.15587,2.71385 0.96937,5.98482 -0.15491,2.71679 -0.4337,3.97475 -1.2512,5.64568 -1.21665,2.48674 -4.57363,5.72364 -5.93596,5.72364 -0.50011,0 -1.6578,-0.57467 -2.57264,-1.27704 z"
       id="path12721"
       inkscape:connector-curvature="0" />
    <path
       style="opacity:1;fill:#ffffff;fill-opacity:1;stroke:#600000;stroke-width:0.39293599;stroke-opacity:0"
       d="m 155.57086,126.59173 c -0.84717,-0.34052 -0.88411,-0.55003 -0.88411,-5.01519 l 0,-4.65982 1.93416,0.39621 c 3.30825,0.67768 5.87503,-0.48582 8.07498,-3.66035 l 1.11966,-1.61568 -1.17619,-1.26282 c -2.11183,-2.26737 -2.8841,-3.51442 -3.51026,-5.66835 -0.91302,-3.14067 -0.24621,-5.560917 2.20835,-8.015481 2.12891,-2.128908 3.71602,-2.701637 7.49546,-2.704835 4.49658,-0.0038 8.52284,1.715832 15.80074,6.748576 16.13465,11.15727 22.95559,15.28312 29.25288,17.69445 0.91849,0.35171 1.66998,0.83311 1.66998,1.06979 0,0.23667 -0.57467,0.7807 -1.27704,1.20895 -2.4998,1.52415 -7.91079,0.89363 -13.07666,-1.52377 -5.47956,-2.5642 -14.47864,-9.43942 -17.08577,-13.05339 -2.27208,-3.14954 -2.94257,-3.43238 -2.5918,-1.09332 0.49493,3.30043 -1.47639,7.49662 -4.5092,9.59835 -1.28066,0.88751 -2.18552,1.12738 -5.34999,1.41828 -2.09475,0.19256 -3.88762,0.4291 -3.98417,0.52565 -0.0966,0.0965 0.0369,0.43155 0.29661,0.74445 1.34589,1.6217 -2.08038,6.68179 -5.64983,8.34395 -1.54397,0.71897 -2.62823,0.91722 -4.92667,0.90078 -1.62086,-0.0116 -3.34487,-0.18098 -3.83113,-0.37643 z"
       id="path12723"
       inkscape:connector-curvature="0" />
    <path
       style="opacity:1;fill:#0068e0;fill-opacity:1;stroke:#600000;stroke-width:0.22573364;stroke-opacity:0"
       d="m 155.67014,210.20765 c -1.50012,-0.85756 -2.71452,-1.88931 -3.09908,-2.63295 -0.31221,-0.60375 -0.31163,-0.7186 0.006,-1.16075 1.6106,-2.24276 2.00185,-2.92695 2.39178,-4.18265 0.49387,-1.59045 0.57158,-3.50912 0.19789,-4.88593 -0.48741,-1.79574 -3.48322,-4.19433 -10.58762,-8.47693 -4.11452,-2.48027 -5.51166,-3.4683 -7.30709,-5.16742 -2.38339,-2.25556 -4.21076,-4.96736 -5.11352,-7.58842 -0.39472,-1.14605 -0.462,-1.90251 -0.46359,-5.21275 -0.002,-4.2635 0.23582,-5.40234 1.58096,-7.56878 0.8463,-1.36303 2.97596,-4.02181 3.22143,-4.02181 0.10413,0 1.17789,0.49618 2.38613,1.10264 1.98114,0.99439 3.43834,2.06008 3.43834,2.51455 0,0.0933 -0.3427,0.66782 -0.76156,1.27674 -2.30649,3.35304 -2.49346,5.59637 -0.83533,10.0224 0.88813,2.37065 2.21467,3.47796 8.3689,6.98583 3.61991,2.06332 8.41795,5.1405 10.43351,6.69143 1.50427,1.15751 2.74181,2.87564 4.08507,5.67148 l 0.94417,1.96517 -0.0232,2.70881 c -0.0262,3.06302 -0.4037,4.88255 -1.46456,7.05932 -1.18752,2.43665 -4.44758,5.47327 -5.86837,5.46617 -0.29952,-0.002 -0.9881,-0.25626 -1.53019,-0.56615 z"
       id="path12775"
       inkscape:connector-curvature="0" />
    <path
       style="opacity:1;fill:#0068e0;fill-opacity:1;stroke:#600000;stroke-width:0.22573364;stroke-opacity:0"
       d="m 156.95045,183.46669 c -2.21935,-0.84245 -4.0193,-2.23039 -4.0193,-3.09927 0,-0.33301 0.50142,-1.06678 1.35868,-1.98827 2.67504,-2.87547 3.74928,-5.38411 3.55934,-8.31204 -0.16139,-2.4877 -1.14362,-4.0509 -3.56362,-5.67143 -0.80699,-0.54039 -5.07336,-2.76422 -9.48081,-4.94184 -4.40745,-2.17762 -8.93214,-4.56537 -10.05487,-5.30612 -3.87824,-2.55876 -6.4897,-6.03942 -7.09677,-9.45883 -0.8119,-4.57311 2.555,-9.1901 7.70049,-10.55963 2.43705,-0.64864 6.58704,-0.24728 7.70171,0.74486 1.03041,0.91713 -0.20734,2.95809 -2.48698,4.10086 -2.38924,1.19771 -4.7102,1.03835 -6.59681,-0.45292 -0.61455,-0.48578 -1.22,-0.88323 -1.34544,-0.88323 -0.38549,0 -0.53171,1.10195 -0.38553,2.90549 0.19088,2.35507 0.46535,3.18898 1.50965,4.58664 2.01108,2.69159 6.01127,4.89919 13.19902,7.28418 5.27768,1.75121 7.54712,2.6872 10.51607,4.33715 1.19015,0.66141 2.28907,1.20256 2.44204,1.20256 0.37316,0 3.35876,3.07391 4.674,4.81224 1.88559,2.49218 2.00672,2.91703 2.00672,7.03878 0,3.36739 -0.0428,3.73631 -0.63235,5.45315 -0.60761,1.76936 -1.79785,3.76269 -3.05929,5.12346 -0.84007,0.90622 -2.91285,2.47963 -3.98507,3.02498 -0.8822,0.44871 -0.93094,0.45018 -1.96088,0.0592 z M 139.0886,135.52953 c 0.0707,-0.0707 0.0684,-0.28532 -0.005,-0.47691 -0.18946,-0.49374 -2.684,-0.48872 -3.17911,0.006 -0.43314,0.43314 -0.43327,0.43742 -0.0259,0.84476 0.28038,0.28037 0.53146,0.28649 1.70519,0.0416 0.75701,-0.15798 1.43425,-0.34508 1.50496,-0.4158 z"
       id="path12777"
       inkscape:connector-curvature="0" />
    <path
       style="opacity:1;fill:#0068e0;fill-opacity:1;stroke:#600000;stroke-width:0.22573364;stroke-opacity:0"
       d="m 157.06846,154.58409 c -2.26431,-1.13355 -3.40449,-2.04044 -3.12792,-2.48793 0.0846,-0.13683 1.11905,-0.69987 2.29887,-1.2512 5.14841,-2.40586 9.04499,-6.36683 9.88152,-10.0448 0.3619,-1.59114 0.4784,-3.83853 0.19899,-3.83853 -0.0854,0 -0.72027,0.44169 -1.41084,0.98154 -1.80863,1.4139 -2.04646,1.50153 -4.07532,1.50153 -2.81309,0 -3.64864,-0.29231 -4.97083,-1.739 -0.61965,-0.678 -1.18931,-1.4824 -1.2659,-1.78756 -0.28889,-1.15105 1.46348,-2.20733 4.24371,-2.55799 3.73373,-0.47091 6.66817,0.52633 9.23358,3.13795 2.05082,2.08776 2.32722,2.65787 2.29365,4.73098 -0.0149,0.91933 -0.14771,2.18908 -0.29515,2.82167 -0.36023,1.54547 -1.53001,4.06259 -2.66412,5.73264 -1.9665,2.8958 -5.74203,5.91413 -7.3978,5.91413 -0.4096,0 -1.67426,-0.47855 -2.94244,-1.11343 z m 4.76855,-19.0131 c 0.64162,-0.29234 0.76673,-0.97054 0.21789,-1.18115 -0.7185,-0.27571 -2.51716,-0.14308 -2.80773,0.20704 -0.34036,0.4101 -0.20018,0.58417 0.75436,0.93674 0.93714,0.34614 1.14835,0.35044 1.83548,0.0374 z"
       id="path12779"
       inkscape:connector-curvature="0" />
    <path
       style="opacity:1;fill:#0068e0;fill-opacity:1;stroke:#600000;stroke-width:0.22573364;stroke-opacity:0"
       d="m 127.57855,134.91122 c -1.55609,-1.03071 -3.8917,-3.67083 -4.70006,-5.31283 l -0.70992,-1.44206 0.79991,-1.18426 c 0.43995,-0.65134 1.42023,-1.84453 2.17841,-2.65153 l 1.37849,-1.46727 0.61824,0.79007 c 1.23076,1.57285 4.5068,4.64383 5.70895,5.35162 1.94288,1.14389 3.41891,1.42039 7.58258,1.42039 4.13679,0 4.11233,-0.0117 3.80365,1.81539 -0.17129,1.01384 -0.23836,1.03164 -2.07542,0.55079 -2.20402,-0.5769 -5.60824,-0.68778 -7.17072,-0.23355 -1.71374,0.49819 -3.72505,1.51439 -4.71133,2.38036 -0.9721,0.85351 -1.3924,0.85085 -2.70278,-0.0171 z"
       id="path12781"
       inkscape:connector-curvature="0" />
    <path
       style="opacity:1;fill:#0068e0;fill-opacity:1;stroke:#600000;stroke-width:0.22573364;stroke-opacity:0"
       d="m 137.01693,127.66811 c -2.00784,-0.38012 -4.36907,-1.69021 -5.99422,-3.32579 -1.24302,-1.251 -1.55878,-1.73339 -1.97517,-3.01749 -0.62649,-1.93204 -0.63859,-2.78096 -0.0442,-3.0991 0.5409,-0.28948 0.58966,-0.8016 0.0944,-0.99165 -0.19638,-0.0754 -0.792,-0.13701 -1.32359,-0.13701 -1.64096,0 -3.32907,-0.41695 -4.99439,-1.23357 -3.8309,-1.87853 -5.94638,-5.033 -6.31687,-9.41929 -0.22266,-2.63605 -0.58376,-3.19641 -1.40082,-2.17376 -1.86475,2.33395 -4.02167,4.10634 -9.19643,7.55691 -6.191459,4.1285 -11.546782,7.1337 -14.42402,8.09418 -3.254688,1.08649 -6.823784,0.97461 -9.29119,-0.29124 l -0.797622,-0.40921 5.71014,-2.86288 c 6.828519,-3.42361 10.439165,-5.6259 19.451112,-11.86405 7.13439,-4.938492 9.35124,-6.32931 13.0347,-8.177755 2.95862,-1.484704 4.23394,-1.792703 7.42297,-1.792703 4.23955,0 6.75145,0.910066 9.16269,3.319655 1.80736,1.806122 2.21788,2.832573 2.08069,5.202473 -0.13782,2.38069 -0.85261,3.88384 -2.85076,5.99494 -0.95607,1.0101 -1.62763,1.93105 -1.72224,2.3618 -0.24717,1.12534 0.51566,2.43827 2.61952,4.50855 l 1.89164,1.86145 2.77728,-0.35947 c 1.5275,-0.19771 2.8463,-0.29045 2.93067,-0.20608 0.0844,0.0844 0.1534,1.94798 0.1534,4.14136 0,5.63 -0.0898,5.81127 -3.14529,6.34843 -1.55052,0.27258 -2.29016,0.26707 -3.85245,-0.0287 z"
       id="path12783"
       inkscape:connector-curvature="0" />
    <path
       style="opacity:1;fill:#0068e0;fill-opacity:1;stroke:#600000;stroke-width:0.22573364;stroke-opacity:0"
       d="m 155.94274,126.78081 c -0.51631,-0.12174 -0.99553,-0.36932 -1.06493,-0.55017 -0.0694,-0.18085 -0.19659,-2.37665 -0.28265,-4.87954 l -0.15647,-4.55072 0.76993,0.16172 c 3.11291,0.65387 4.54084,0.58712 6.24006,-0.29168 0.98427,-0.50905 2.62512,-2.16393 3.62757,-3.65858 l 0.69606,-1.03783 -1.02365,-0.99378 c -2.67079,-2.59286 -3.96909,-5.25634 -4.00544,-8.21725 -0.0192,-1.56004 0.0666,-1.98699 0.63006,-3.136344 0.73458,-1.498461 2.83672,-3.730771 4.13871,-4.394997 1.39604,-0.712209 3.45235,-1.008265 6.10926,-0.879576 4.80455,0.23271 8.64674,2.124364 18.64694,9.180567 11.42734,8.06321 18.4798,12.32637 24.2682,14.66995 1.5409,0.62387 2.9058,1.23849 3.03313,1.36581 0.30621,0.30621 -0.59018,1.26731 -1.72449,1.84895 -2.62499,1.34603 -8.2814,0.43419 -13.46922,-2.17129 -5.5578,-2.7913 -15.31875,-10.48046 -16.67734,-13.13755 -0.54838,-1.07249 -1.48914,-2.10399 -1.91892,-2.10399 -0.26538,0 -0.30313,0.34094 -0.20748,1.87399 0.19139,3.06778 -0.6916,5.38554 -2.97071,7.79783 -2.06547,2.18616 -3.18099,2.59744 -7.98812,2.94513 -1.52812,0.11053 -2.83138,0.25394 -2.89614,0.3187 -0.0647,0.0647 0.0558,0.38264 0.26799,0.70642 1.25977,1.92265 -1.78737,6.5889 -5.50206,8.42561 -1.68705,0.83416 -1.74289,0.8448 -4.65454,0.88713 -1.62085,0.0236 -3.36944,-0.0568 -3.88575,-0.17851 z"
       id="path12785"
       inkscape:connector-curvature="0" />
    <path
       style="opacity:1;fill:#0068e0;fill-opacity:1;stroke:#600000;stroke-width:0.22573364;stroke-opacity:0"
       d="m 182.27652,128.29512 c -2.51716,-0.73211 -3.96151,-1.61769 -6.11421,-3.74884 -2.02448,-2.00423 -3.06675,-3.68134 -2.80343,-4.51101 0.35283,-1.11167 2.92807,-1.53435 4.03644,-0.66251 0.32851,0.25841 1.30486,1.42367 2.16966,2.58948 2.13315,2.8756 3.02804,3.82996 4.57877,4.88304 0.72553,0.4927 1.28096,1.0104 1.23427,1.15045 -0.0467,0.14005 -0.38269,0.3755 -0.74668,0.52322 -0.55341,0.22459 -0.93912,0.18793 -2.35482,-0.22383 z"
       id="path12787"
       inkscape:connector-curvature="0" />
    <path
       style="opacity:1;fill:#0068e0;fill-opacity:1;stroke:#600000;stroke-width:0.22573364;stroke-opacity:0"
       d="m 192.886,126.98681 c -2.47425,-0.22804 -4.25205,-0.86976 -6.43678,-2.32343 -2.28308,-1.51911 -5.92503,-4.90419 -6.1224,-5.6906 -0.16034,-0.63883 0.60224,-1.56522 1.83487,-2.22904 l 0.75432,-0.40623 0.86536,0.65705 c 0.47594,0.36138 1.82427,1.55819 2.99627,2.65956 1.26578,1.18951 3.37363,2.81385 5.19187,4.00091 3.65363,2.38534 4.34238,2.90143 4.19352,3.1423 -0.17705,0.28647 -1.43535,0.35922 -3.27703,0.18948 z"
       id="path12789"
       inkscape:connector-curvature="0" />
    <path
       style="opacity:1;fill:#0068e0;fill-opacity:1;stroke:#600000;stroke-width:0.22573364;stroke-opacity:0"
       d="m 200.4675,125.10045 c -1.79742,-0.45076 -5.08103,-2.03127 -7.26234,-3.49561 -3.50918,-2.35576 -7.02486,-5.56054 -7.84964,-7.15549 -0.68972,-1.33376 -0.35329,-3.44709 0.54874,-3.44709 0.57792,0 1.32395,0.50173 3.74939,2.5216 3.9082,3.2547 11.81827,8.72848 14.16773,9.8041 1.35323,0.61953 1.50697,0.91962 0.79928,1.56008 -0.60393,0.54654 -2.44528,0.64072 -4.15316,0.21241 z"
       id="path12791"
       inkscape:connector-curvature="0" />
    <path
       style="opacity:1;fill:#0068e0;fill-opacity:1;stroke:#600000;stroke-width:0.22573364;stroke-opacity:0"
       d="m 112.86343,127.61311 c -0.44174,-0.35081 -0.43201,-0.37406 0.45147,-1.0794 0.49661,-0.39647 2.47743,-2.26362 4.4018,-4.14921 1.92438,-1.8856 3.73232,-3.5481 4.01763,-3.69445 0.66277,-0.33996 2.7356,0.0541 3.48097,0.66179 l 0.51495,0.41982 -0.44055,0.82568 c -0.55539,1.04092 -3.72009,4.05127 -5.52859,5.25893 -2.54149,1.69715 -5.89676,2.55173 -6.89768,1.75684 z"
       id="path12793"
       inkscape:connector-curvature="0" />
    <path
       style="opacity:1;fill:#0068e0;fill-opacity:1;stroke:#600000;stroke-width:0.22573364;stroke-opacity:0"
       d="m 102.62322,126.33558 c -0.73756,-0.29532 -0.4471,-0.59047 1.98744,-2.01947 2.61677,-1.53597 5.16692,-3.46588 8.4834,-6.4201 1.48715,-1.32471 2.87804,-2.50514 3.09087,-2.62318 0.3098,-0.17182 0.70321,0.0837 1.97291,1.28149 0.87227,0.82286 1.52962,1.58725 1.46076,1.69865 -0.0688,0.11141 -1.81319,1.4697 -3.87631,3.01843 -3.87486,2.90875 -6.27398,4.32237 -8.39387,4.94587 -1.3386,0.3937 -3.87858,0.4573 -4.7252,0.11831 z"
       id="path12795"
       inkscape:connector-curvature="0" />
    <path
       style="opacity:1;fill:#0068e0;fill-opacity:1;stroke:#600000;stroke-width:0.22573364;stroke-opacity:0"
       d="m 95.911311,123.84681 c -1.458775,-0.18482 -2.689038,-0.58836 -3.023939,-0.99189 -0.212183,-0.25566 -0.0795,-0.36208 0.715578,-0.57395 2.48845,-0.66311 7.60755,-3.87882 14.76145,-9.27282 2.61583,-1.97231 4.86095,-3.58603 4.98916,-3.58603 0.24187,0 1.53379,2.63003 1.87313,3.81327 0.19173,0.66853 0.16208,0.69736 -2.89064,2.81019 -3.43679,2.37866 -8.65041,5.69012 -10.17302,6.46145 -2.29665,1.16345 -4.283205,1.58918 -6.251719,1.33978 z"
       id="path12797"
       inkscape:connector-curvature="0" />
    <path
       style="opacity:1;fill:#0068e0;fill-opacity:1;stroke:#600000;stroke-width:0.22573364;stroke-opacity:0"
       d="m 152.31559,230.93377 c -0.28409,-0.43315 -0.42276,-1.17636 -0.47783,-2.56099 -0.0677,-1.7023 2.2e-4,-2.14524 0.53338,-3.47793 0.65848,-1.64594 0.65793,-2.41996 -0.003,-3.81216 -0.91986,-1.93847 -3.00191,-3.66759 -7.11222,-5.90663 -4.48833,-2.44496 -8.37657,-6.02151 -9.81379,-9.02708 -1.23715,-2.58717 -1.78863,-4.8684 -1.80083,-7.44921 -0.0125,-2.64668 0.2704,-3.7986 1.57998,-6.4334 1.75822,-3.53741 1.98599,-3.61094 5.23712,-1.69052 2.31954,1.37013 3.44312,2.26345 3.44312,2.73751 0,0.15692 -0.38093,1.01457 -0.84651,1.90587 -0.79783,1.52738 -0.8465,1.7389 -0.8465,3.67921 0,1.80223 0.0795,2.22047 0.63785,3.35761 0.97279,1.98105 4.00859,4.53306 9.33013,7.84327 2.69976,1.67937 5.82604,4.7995 6.78533,6.77201 1.24094,2.55162 1.51281,4.9957 0.84218,7.57109 -0.4638,1.7811 -1.24415,3.07301 -2.90601,4.81102 -2.17345,2.27303 -3.80226,2.87027 -4.58269,1.68033 z"
       id="path12799"
       inkscape:connector-curvature="0" />
    <path
       style="opacity:1;fill:#0068e0;fill-opacity:1;stroke:#600000;stroke-width:0.22573364;stroke-opacity:0"
       d="m 154.1607,248.38398 c 0.44418,-1.39493 0.83125,-4.67479 0.69532,-5.89188 -0.22061,-1.97536 -0.82395,-3.12267 -2.5414,-4.83272 -1.27921,-1.27371 -1.98926,-1.74598 -4.36189,-2.9012 -5.57869,-2.71625 -9.09648,-6.02927 -10.17613,-9.58379 -0.86992,-2.864 -0.3273,-7.39632 1.01852,-8.50747 0.50992,-0.42101 1.45193,-0.12945 3.65578,1.1315 l 1.67664,0.9593 0,2.82301 c 0,2.4332 0.0675,2.96238 0.48862,3.83237 0.71891,1.48506 3.03775,3.8202 6.14062,6.18378 3.37253,2.56899 5.25923,4.47384 6.26108,6.32134 0.69161,1.27539 0.76656,1.59185 0.76656,3.2365 0,1.68803 -0.0704,1.96494 -0.95155,3.7432 -0.85779,1.73109 -3.00556,4.53302 -2.67217,3.48606 z"
       id="path12801"
       inkscape:connector-curvature="0" />
    <path
       style="opacity:1;fill:#0068e0;fill-opacity:1;stroke:#600000;stroke-width:0.22573364;stroke-opacity:0"
       d="m 169.71238,135.66366 c -0.50418,-0.34143 -1.54316,-1.04409 -2.30883,-1.56149 -2.96673,-2.00473 -6.25092,-2.53577 -10.17706,-1.64559 -2.66348,0.60389 -2.75606,0.56124 -2.66102,-1.22589 l 0.0587,-1.1034 4.28894,-0.0386 c 3.36648,-0.0303 4.54157,-0.12187 5.46355,-0.42593 1.33892,-0.44156 3.81026,-2.07265 5.88203,-3.88214 0.77732,-0.67891 1.54527,-1.23438 1.70657,-1.23438 0.48605,0 4.89368,4.62436 4.89368,5.13431 0,1.04947 -4.87679,6.60383 -5.79824,6.60383 -0.23737,0 -0.84411,-0.27934 -1.3483,-0.62076 z"
       id="path12803"
       inkscape:connector-curvature="0" />
    <path
       style="opacity:1;fill:#0068e0;fill-opacity:1;stroke:#600000;stroke-width:0.22573364;stroke-opacity:0"
       d="m 141.70101,247.04785 c -1.31314,-1.92889 -1.83838,-3.85806 -1.89752,-6.96947 -0.0283,-1.48991 0.0477,-1.85712 0.56896,-2.7465 0.69963,-1.19382 1.3679,-1.725 2.16875,-1.72381 0.70711,0.001 2.03781,0.7872 2.03781,1.2039 0,0.16965 -0.45989,1.00865 -1.02198,1.86444 -1.38274,2.10525 -1.54063,2.81304 -1.39253,6.24233 0.0684,1.58295 0.1063,2.87741 0.0843,2.87656 -0.022,-8.6e-4 -0.2685,-0.3372 -0.54779,-0.74745 z"
       id="path12859"
       inkscape:connector-curvature="0" />
    <path
       transform="translate(78.206405,38.712028)"
       inkscape:connector-curvature="0"
       d="m 72.652916,213.95954 c -0.217816,0 -0.435633,0 -0.653449,0 -0.150953,0 -0.301906,0 -0.452859,0 -0.120952,-0.0196 -0.648751,0.0454 -0.122673,-0.035 -0.159386,0.0905 -0.332092,0.121 -0.513586,0.12385 -0.08645,0.001 -0.169609,-0.022 -0.255397,-0.0235 -0.01512,0.003 -0.162072,-7.4e-4 -0.121701,0.003 0.03475,0.004 0.07048,0.006 0.104805,-8.3e-4 0.03887,-0.007 0.08936,-0.073 0.111649,-0.0403 0.02161,0.0317 -0.05773,0.0518 -0.09177,0.0695 -0.09302,0.0484 -0.191612,0.0853 -0.287417,0.12791 -0.37731,-0.0207 -0.34316,0.0374 -0.577184,-0.0943 -0.0392,-0.0221 0.08045,0.0404 0.121921,0.0578 0.01629,0.007 0.0616,6.4e-4 0.05092,0.0147 -8.93e-4,0.001 -0.144859,0.007 -0.168761,0.008 0.374091,-0.0873 0.315749,-0.0482 0.511604,-0.35609 0.717983,-1.12877 -1.960388,0.69511 -1.273265,-0.45271 l 0,0 c 0.244452,-0.40835 0.216657,-0.37229 0.709415,-0.54154 0.163251,-0.006 0.337329,-0.0235 0.497823,0.0171 0.07876,0.0199 0.151747,0.0582 0.228613,0.0844 0.02818,0.01 -0.05496,-0.023 -0.08243,-0.0344 -0.126391,-0.002 -0.252781,-0.003 -0.379172,-0.005 -0.05432,0.0311 -0.106954,0.0654 -0.162966,0.0934 -0.01869,0.009 0.03296,-0.0258 0.05046,-0.0372 0.09583,-0.0626 0.184278,-0.13957 0.289437,-0.18477 0.185875,-0.0799 0.360255,-0.0829 0.552268,-0.0775 0.03763,0.003 0.07531,0.005 0.112873,0.008 0.142998,0.0134 0.02673,0.0122 -0.03506,0.0328 -0.0014,4.6e-4 -0.186522,0.093 0.0059,-0.003 0.124046,-0.0354 0.24668,-0.0761 0.372137,-0.10607 0.09284,-0.0222 0.25204,0.0163 0.35159,0 0.150953,0 0.301906,0 0.452859,0 0.217816,0 0.435633,0 0.653449,0 1.33777,0 1.33777,1.35135 0,1.35135 z"
       id="path13078"
       style="fill:#ff0000;fill-opacity:1;fill-rule:nonzero;stroke:none;stroke-width:1px;stroke-linecap:butt;stroke-linejoin:miter;stroke-opacity:1" />
  </g>
  <g
     inkscape:groupmode="layer"
     id="layer4"
     inkscape:label="whitespace"
     transform="translate(-78.206405,-38.712028)"
     style="display:none"
     sodipodi:insensitive="true">
    <rect
       style="opacity:1;fill:#ffffff;fill-opacity:1;stroke:#600000;stroke-opacity:0"
       id="rect12630"
       width="11.428578"
       height="12.207805"
       x="141.03896"
       y="251.32468" />
    <rect
       style="opacity:1;fill:#ffffff;fill-opacity:1;stroke:#600000;stroke-width:1.0751214;stroke-opacity:0"
       id="rect12625"
       width="16.028776"
       height="25.639162"
       x="141.59601"
       y="89.803795" />
  </g>
  <g
     inkscape:groupmode="layer"
     id="layer3"
     inkscape:label="arrows"
     transform="translate(-78.206405,-38.712028)"
     style="display:none">
    <path
       style="fill:url(#linearGradient31550);fill-opacity:1;fill-rule:evenodd;stroke:none;stroke-width:1px;stroke-linecap:butt;stroke-linejoin:miter;stroke-opacity:1"
       d="m 138.64069,81.357636 0,17.264006 c 2.96876,5.399408 1.19575,9.314428 0,10.879188 -0.19242,0.50062 -0.92087,1.33111 -1.44315,1.87296 -0.48105,0.81674 -0.7147,1.09745 -0.94835,1.58433 0.0674,0.58413 1.70165,2.40525 3.41836,2.86568 1.11197,0.21303 1.72914,-0.23365 2.59371,-0.35048 l 3.19158,-0.0412 0.19387,14.96749 5.96647,-0.24739 0.7755,-14.7201 c 6.20976,0.20614 9.6157,0.1237 10.17658,-1.77301 -0.86589,-1.41357 -2.02041,-2.82714 -2.68013,-4.69427 -0.61849,-2.11453 -1.40191,-4.97125 0,-8.94125 l 0,-18.665924 21.26506,0 -31.89759,-42.645638 -31.89759,42.645638 z"
       id="path26997"
       inkscape:connector-curvature="0"
       sodipodi:nodetypes="ccccccccccccccccccc" />
    <path
       sodipodi:nodetypes="ccccccccccccc"
       inkscape:connector-curvature="0"
       id="path31603"
       d="m 160.13253,276.34882 0,-34.11568 c -0.77022,0.0232 -0.84552,8.10748 -7.31414,9.03405 l -3.73465,0.0751 c -0.29415,-8.61553 -0.5188,-11.67164 -0.67396,-12.50399 -0.40504,0.66412 -0.39312,3.76049 -0.3812,12.41627 l -3.79276,0.15162 c -2.76235,-1.52884 -5.24672,-4.16956 -5.36835,-9.17304 l 0,34.11568 -21.26506,0 31.89759,42.64564 31.89759,-42.64564 z"
       style="fill:url(#linearGradient12593);fill-opacity:1;fill-rule:evenodd;stroke:none;stroke-width:1px;stroke-linecap:butt;stroke-linejoin:miter;stroke-opacity:1" />
  </g>
</svg>
