<?xml version="1.0" encoding="UTF-8" standalone="no"?>
<svg
   xmlns:dc="http://purl.org/dc/elements/1.1/"
   xmlns:cc="http://creativecommons.org/ns#"
   xmlns:rdf="http://www.w3.org/1999/02/22-rdf-syntax-ns#"
   xmlns:svg="http://www.w3.org/2000/svg"
   xmlns="http://www.w3.org/2000/svg"
   xmlns:xlink="http://www.w3.org/1999/xlink"
   xmlns:sodipodi="http://sodipodi.sourceforge.net/DTD/sodipodi-0.dtd"
   xmlns:inkscape="http://www.inkscape.org/namespaces/inkscape"
   version="1.1"
   x="0"
   y="0"
   width="142.58719"
   height="280.28244"
   viewBox="0 0 142.58719 280.28244"
   id="svg17200"
   inkscape:version="0.91 r13725"
   sodipodi:docname="Caduceus_v2.svg">
  <metadata
     id="metadata17208">
    <rdf:RDF>
      <cc:Work
         rdf:about="">
        <dc:format>image/svg+xml</dc:format>
        <dc:type
           rdf:resource="http://purl.org/dc/dcmitype/StillImage" />
        <dc:title></dc:title>
      </cc:Work>
    </rdf:RDF>
  </metadata>
  <defs
     id="defs17206">
    <linearGradient
       inkscape:collect="always"
       id="linearGradient12587">
      <stop
         style="stop-color:#d40000;stop-opacity:1;"
         offset="0"
         id="stop12589" />
      <stop
         style="stop-color:#d40000;stop-opacity:0;"
         offset="1"
         id="stop12591" />
    </linearGradient>
    <linearGradient
       inkscape:collect="always"
       id="linearGradient31544">
      <stop
         style="stop-color:#6ddc14;stop-opacity:1;"
         offset="0"
         id="stop31546" />
      <stop
         style="stop-color:#6ddc14;stop-opacity:0"
         offset="1"
         id="stop31548" />
    </linearGradient>
    <marker
       inkscape:stockid="TriangleOutL"
       orient="auto"
       refY="0"
       refX="0"
       id="TriangleOutL"
       style="overflow:visible"
       inkscape:isstock="true">
      <path
         id="path26319"
         d="m 5.77,0 -8.65,5 0,-10 8.65,5 z"
         style="fill:#000000;fill-opacity:1;fill-rule:evenodd;stroke:#000000;stroke-width:1pt;stroke-opacity:1"
         transform="scale(0.8,0.8)"
         inkscape:connector-curvature="0" />
    </marker>
    <linearGradient
       inkscape:collect="always"
       xlink:href="#linearGradient31544"
       id="linearGradient31550"
       x1="151.30635"
       y1="42.438919"
       x2="151.90443"
       y2="104.90215"
       gradientUnits="userSpaceOnUse"
       gradientTransform="translate(-2.182124,21.942502)" />
    <linearGradient
       inkscape:collect="always"
       xlink:href="#linearGradient12587"
       id="linearGradient12593"
       x1="148.59032"
       y1="297.58356"
       x2="149.1228"
       y2="234.71379"
       gradientUnits="userSpaceOnUse"
       gradientTransform="translate(0.054026,-3.6099411)" />
  </defs>
  <sodipodi:namedview
     pagecolor="#ffffff"
     bordercolor="#666666"
     borderopacity="1"
     objecttolerance="10"
     gridtolerance="10"
     guidetolerance="10"
     inkscape:pageopacity="0"
     inkscape:pageshadow="2"
     inkscape:window-width="1902"
     inkscape:window-height="1106"
     id="namedview17204"
     showgrid="false"
     showguides="true"
     inkscape:zoom="2.5449438"
     inkscape:cx="-10.044154"
     inkscape:cy="140.99447"
     inkscape:window-x="8"
     inkscape:window-y="0"
     inkscape:window-maximized="0"
     inkscape:current-layer="layer4"
     fit-margin-top="0"
     fit-margin-left="0"
     fit-margin-right="0"
     fit-margin-bottom="0" />
  <g
     inkscape:groupmode="layer"
     id="layer2"
     inkscape:label="caduceus"
     transform="translate(-78.206405,-38.712028)">
    <g
       id="layer1"
       transform="matrix(0.49147257,0,0,0.49147257,77.162026,90.275454)"
       style="fill:#494949;fill-opacity:1">
      <path
         d="m 143.68,350.424 c -0.97,-1.124 -1.459,-4.528 -1.583,-11.02 l -0.178,-9.393 -4.034,-1.739 c -8.964,-3.866 -12.689,-9.813 -12.894,-20.582 -0.108,-5.657 0.291,-7.443 2.373,-10.636 2.677,-4.105 2.679,-4.094 -2.084,-9.124 -6.595,-6.965 -8.469,-24.169 -3.26,-29.93 1.091,-1.206 1.975,-2.648 1.965,-3.204 -0.011,-0.556 -2.142,-3.637 -4.736,-6.847 -8.054,-9.967 -9.06,-12.48 -9.304,-23.252 -0.197,-8.675 0.025,-9.935 2.569,-14.551 1.531,-2.78 4.071,-6.473 5.643,-8.207 l 2.858,-3.152 -3.746,-4.315 c -2.061,-2.373 -4.952,-6.775 -6.425,-9.782 -2.37,-4.841 -2.709,-6.784 -2.957,-16.964 -0.243,-9.97 0.015,-12.184 1.944,-16.672 1.224,-2.847 3.518,-6.463 5.098,-8.036 2.785,-2.772 3.751,-5.503 1.934,-5.468 -0.489,0.009 -3.414,-2.375 -6.501,-5.299 -8.562,-8.112 -13.178,-22.332 -9.905,-30.512 l 1.458,-3.645 -3.764,-2.939 C 94.458,92.272 92.394,89.171 89.319,81.88 L 87.777,78.226 82.74,79.943 C 77.913,81.588 77.479,81.576 72.403,79.654 69.083,78.396 65,77.71 61.468,77.816 57.505,77.935 54.385,77.319 50.961,75.742 48.283,74.507 44.09,73.418 41.645,73.32 38.666,73.202 35.331,72.044 31.542,69.815 27.504,67.439 24.669,66.496 21.635,66.52 16.833,66.559 8.954,62.91 4.778,58.714 L 2.125,56.049 7.661,54.699 C 14.406,53.054 32.256,43.693 44.299,35.484 49.186,32.153 59.405,25.162 67.007,19.948 83.968,8.316 85.249,7.627 93.041,5.94 c 18.041,-3.907 32.475,4.14 35.088,19.563 1.008,5.944 -0.566,11.199 -4.839,16.16 -1.808,2.099 -3.28,4.225 -3.27,4.724 0.009,0.5 1.477,2.09 3.262,3.535 2.623,2.124 3.912,2.506 6.72,1.995 5.265,-0.957 6.058,-2.385 5.986,-10.777 -0.048,-5.656 -0.586,-8.483 -2.215,-11.633 -4.459,-8.626 -2.175,-17.946 5.416,-22.101 10.278,-5.626 21.579,-0.425 23.033,10.601 0.407,3.085 -0.101,5.641 -1.982,9.968 -2.223,5.114 -2.475,6.878 -2.076,14.542 l 0.455,8.723 4.703,0.213 c 4.324,0.196 10.766,-2.017 10.734,-3.689 -0.007,-0.346 -1.095,-2.001 -2.419,-3.679 -5.905,-7.481 -6.634,-19.79 -1.631,-27.554 6.208,-9.635 14.774,-12.904 27.54,-10.511 11.72,2.197 16.667,5.026 45.394,25.961 6.877,5.011 18.416,12.357 25.643,16.323 12.505,6.862 13.393,7.187 18.381,6.721 4.82,-0.451 5.245,-0.317 5.283,1.662 0.056,2.934 -6.167,10.265 -10.827,12.755 -2.098,1.121 -5.578,2.072 -7.733,2.113 -2.155,0.041 -6.455,1.295 -9.555,2.786 -4.588,2.207 -6.475,2.602 -10.149,2.122 -3.202,-0.418 -5.145,-0.158 -6.69,0.897 -2.473,1.689 -8.558,3.01 -16.596,3.602 -16.544,1.219 -22.092,1.791 -22.985,2.366 -0.546,0.352 -1.594,2.16 -2.329,4.019 -1.483,3.749 -5.463,8.369 -9.608,11.153 -2.495,1.675 -2.706,2.342 -2.595,8.179 0.17,8.934 -2.96,15.866 -11.137,24.665 l -6.516,7.011 4.217,4.847 c 6.277,7.214 8.314,12.196 8.503,20.802 0.296,13.435 -2.865,21.068 -12.139,29.305 l -4.665,4.144 3.133,3.226 c 7.411,7.63 8.071,9.248 8.214,20.132 0.161,12.299 -1.395,16.007 -9.965,23.752 -5.489,4.961 -7.362,8.083 -4.819,8.035 0.58,-0.011 2.253,2.545 3.717,5.68 4.617,9.886 2.796,20.291 -5.201,29.733 -2.097,2.476 -3.808,4.75 -3.802,5.054 0.005,0.303 1.166,2.188 2.58,4.188 2.08,2.942 2.593,4.857 2.691,10.044 0.215,11.274 -6.64,20.441 -15.411,20.608 l -2.898,0.055 -0.468,11.221 c -0.429,10.3 -1.094,12.739 -3.504,12.844 -0.344,0.015 -1.258,-0.705 -2.03,-1.601 z m 2.634,-25.96 c -0.278,-14.6 -0.784,-22.43 -1.448,-22.417 -0.669,0.013 -0.824,7.942 -0.449,23.001 0.326,13.06 0.951,22.738 1.448,22.418 0.482,-0.311 0.684,-10.661 0.449,-23.002 z m -4.679,-11.781 c -0.288,-8.834 -1.64,-10.586 -4.185,-5.426 -1.823,3.696 -1.129,10.404 1.592,15.391 l 1.628,2.983 0.612,-2.512 c 0.337,-1.382 0.496,-6.078 0.353,-10.436 z m 11.597,9.274 c 1.371,-2.683 1.07,-12.417 -0.428,-13.86 -2.279,-2.193 -2.675,-1.165 -2.837,7.358 -0.118,6.185 0.169,8.5 1.053,8.481 0.668,-0.014 1.663,-0.904 2.212,-1.979 z m 8.051,-4.893 c 6.225,-10.514 3.622,-18.444 -9.241,-28.156 -1.066,-0.805 -3.799,-2.867 -6.073,-4.583 -2.274,-1.715 -5.426,-4.909 -7.004,-7.097 -2.533,-3.511 -2.834,-4.671 -2.557,-9.874 l 0.314,-5.897 -4.208,-2.552 c -2.315,-1.403 -4.937,-2.537 -5.828,-2.521 -4.26,0.082 -6.174,12.997 -2.995,20.216 3.049,6.924 12.382,14.728 22.063,18.449 5.06,1.945 10.932,8.066 11.813,12.313 0.729,3.516 0.375,8.583 -0.942,13.465 -0.607,2.253 -0.508,2.369 0.958,1.119 0.899,-0.766 2.564,-2.963 3.7,-4.882 z m -28.801,-0.687 c -0.923,-6.699 -0.014,-11.098 2.989,-14.463 2.948,-3.303 2.502,-5.4 -1.338,-6.286 -2.236,-0.516 -3.15,-0.098 -5.067,2.317 -2.072,2.611 -2.275,3.705 -1.785,9.592 0.379,4.549 1.276,7.767 2.843,10.198 1.26,1.954 2.457,3.549 2.661,3.545 0.205,-0.004 0.068,-2.21 -0.303,-4.903 z M 161.7,283.973 c 5.104,-4.781 7.606,-10.429 7.483,-16.895 -0.183,-9.584 -6.246,-17.626 -18.96,-25.144 -7.338,-4.339 -14.436,-10.358 -16.321,-13.84 -2.324,-4.292 -2.013,-10.976 0.705,-15.149 2.71,-4.163 2.787,-4.047 -6.361,-9.532 -6.16,-3.692 -6.583,-3.525 -10.593,4.189 -3.845,7.396 -4.189,14.989 -1.089,24.037 2.031,5.927 3.45,8.094 8.67,13.245 3.786,3.735 8.745,7.363 12.604,9.22 12.441,5.985 18.549,13.791 15.094,19.29 -0.872,1.387 -1.502,4.555 -1.45,7.288 0.156,8.216 3.731,9.368 10.218,3.291 z m -14.164,-6.231 c 0.058,-8.248 -0.973,-11.734 -3.456,-11.687 -1.351,0.026 -0.804,13.436 0.604,14.792 2.119,2.04 2.821,1.275 2.852,-3.105 z m -6.562,-9.377 c -0.43,-1.659 -0.487,-1.658 -1.18,0.022 -0.401,0.971 -0.371,2.545 0.066,3.5 0.757,1.652 0.814,1.651 1.18,-0.023 0.212,-0.966 0.182,-2.541 -0.066,-3.499 z m 25.641,-24.493 c 6.941,-4.404 11.092,-12.4 11.542,-22.233 0.303,-6.607 0.041,-7.833 -2.875,-13.483 -1.764,-3.418 -4.257,-7.127 -5.54,-8.241 -3.355,-2.915 -17.915,-12.418 -22.071,-14.405 -1.943,-0.929 -6.385,-3.498 -9.871,-5.71 -5.446,-3.455 -6.632,-4.759 -8.428,-9.27 -3.414,-8.575 -2.85,-14.547 1.883,-19.951 2.705,-3.087 1.725,-4.645 -4.932,-7.844 l -5.734,-2.756 -3.432,4.066 c -5.33,6.316 -7.062,11.553 -6.885,20.825 0.131,6.878 0.604,8.925 3.32,14.347 3.703,7.395 10.596,14.284 18.968,18.959 12.678,7.078 22.946,14.136 24.794,17.041 1.064,1.672 1.969,4.746 2.01,6.83 0.08,3.986 -2.564,10.492 -5.181,12.75 -2.607,2.249 -1.682,4.821 2.827,7.856 5.142,3.461 5.917,3.559 9.605,1.219 z m -18.107,-14.908 c 0.049,-13.522 -0.014,-13.816 -3.305,-15.439 l -3.029,-1.494 0.2,10.484 c 0.181,9.507 0.408,10.672 2.432,12.488 1.229,1.101 2.558,1.656 2.956,1.232 0.397,-0.423 0.733,-3.695 0.746,-7.271 z m 6.308,-3.3 c 0.094,-5.467 -1.94,-4.793 -2.177,0.721 -0.165,3.865 0.052,4.731 0.953,3.803 0.642,-0.661 1.192,-2.697 1.224,-4.524 z m -15.273,-5.713 c -1.478,-1.422 -2.534,2.7 -1.547,6.035 0.774,2.615 0.805,2.593 1.687,-1.186 0.598,-2.564 0.551,-4.183 -0.14,-4.849 z m 31.129,-32.892 c 8.23,-6.286 12.042,-14.491 11.965,-25.756 -0.031,-4.567 -0.647,-7.661 -2.073,-10.403 -1.952,-3.754 -10.651,-13.359 -12.075,-13.332 -0.38,0.007 -3.612,-1.699 -7.182,-3.792 -3.64,-2.134 -11.727,-5.359 -18.41,-7.342 -13.464,-3.995 -22.423,-8.69 -26.973,-14.136 -2.474,-2.962 -3.207,-4.909 -3.644,-9.683 -0.576,-6.297 0.174,-7.298 3.12,-4.165 4.102,4.363 14.122,2.903 18.338,-2.671 2.218,-2.933 1.97,-5.029 -0.719,-6.083 -7.356,-2.883 -16.038,-1.747 -22.604,2.957 -8.315,5.957 -10.532,15.757 -5.634,24.906 4.618,8.627 11.048,13.233 32.851,23.534 18.354,8.672 21.66,10.719 24.55,15.202 3.97,6.159 1.733,15.864 -5.16,22.381 -3.839,3.629 -4.176,5.193 -1.589,7.369 2.382,2.004 7.511,4.548 9.204,4.566 0.752,0.007 3.467,-1.591 6.035,-3.552 z M 119.629,92.881 c -1.262,-1.215 0.323,-2.398 3.288,-2.455 1.617,-0.031 2.949,0.394 2.959,0.944 0.011,0.55 -0.619,1.012 -1.398,1.027 -0.78,0.015 -2.037,0.278 -2.792,0.584 -0.756,0.307 -1.681,0.262 -2.057,-0.1 z m 30.196,75.877 c 0.473,-13.054 0.454,-13.199 -1.907,-14.95 -3.092,-2.293 -5.925,-3.152 -6.817,-2.066 -0.39,0.475 -0.336,6.836 0.12,14.137 0.802,12.861 0.907,13.314 3.354,14.59 4.627,2.414 4.747,2.146 5.25,-11.711 z m 8.081,4.715 c 2.541,-4.042 2.657,-7.942 0.343,-11.505 -1.165,-1.793 -2.555,-2.978 -3.09,-2.633 -1.271,0.82 -0.98,16.512 0.306,16.488 0.537,-0.011 1.636,-1.068 2.441,-2.35 z m -19.614,-7.826 c -0.146,-7.675 -0.462,-9.493 -1.646,-9.47 -1.707,0.032 -2.979,2.266 -3.857,6.775 -0.439,2.252 0.002,4.563 1.473,7.724 3.23,6.942 4.233,5.689 4.03,-5.029 z m 33.688,-33.279 c 9.409,-5.106 17.316,-16.898 17.913,-26.713 0.34,-5.586 0.137,-6.285 -2.885,-9.947 -5.014,-6.077 -10.308,-8.656 -17.585,-8.565 -6.631,0.082 -11.861,2.123 -12.325,4.81 -0.159,0.918 1.048,3.108 2.682,4.868 2.589,2.789 3.735,3.241 8.924,3.517 5.292,0.282 6.292,0.021 9,-2.347 1.675,-1.465 3.324,-2.669 3.664,-2.676 0.846,-0.016 -0.293,8.04 -1.488,10.53 -3.46,7.206 -12.491,14.997 -20.688,17.846 -5.073,1.764 -4.429,3.637 2.441,7.1 6.174,3.113 7.223,3.273 10.347,1.577 z m -3.336,-40.501 c -2.834,-0.683 -2.053,-2.272 1.146,-2.333 3.327,-0.063 4.882,1.389 2.517,2.348 -0.86,0.349 -1.641,0.584 -1.735,0.522 -0.093,-0.062 -0.961,-0.304 -1.928,-0.537 z m -18.007,31.788 c 0.346,-3.652 0.586,-10.624 1.178,-34.279 0.359,-14.309 0.816,-26.556 1.016,-27.216 0.201,-0.659 0.343,-6.513 0.317,-13.008 l -0.047,-11.81 -6.863,-0.558 c -3.774,-0.308 -6.999,-0.418 -7.166,-0.245 -0.166,0.174 -0.152,19.247 0.031,42.386 0.263,33.016 0.607,42.241 1.602,42.858 1.659,1.029 6.968,2.907 8.562,3.029 0.688,0.052 1.305,-0.468 1.37,-1.157 z m 11.091,-3.888 c 4.522,-2.182 11.538,-8.39 11.504,-10.179 -0.012,-0.613 -0.697,-1.102 -1.521,-1.087 -0.825,0.016 -1.397,-0.488 -1.272,-1.12 0.126,-0.632 -1.338,-1.542 -3.253,-2.022 -1.914,-0.481 -5.098,-2.244 -7.075,-3.917 l -3.595,-3.044 -0.181,6.316 c -0.099,3.473 0.047,6.535 0.325,6.803 0.279,0.267 2.542,-0.251 5.03,-1.152 6.157,-2.229 5.747,-0.684 -0.642,2.417 -5.053,2.454 -6.475,4.515 -5.231,7.582 0.741,1.825 0.931,1.806 5.911,-0.597 z m -24.587,-1.789 c -0.734,-1.797 -12.921,-8.573 -15.336,-8.527 -1.735,0.033 -1.617,0.381 1.027,3.038 6.233,6.263 16.185,10.08 14.309,5.489 z m -0.68,-6.556 c 0.69,-3.027 0.745,-12.266 0.073,-12.253 -0.352,0.006 -2.052,1.123 -3.777,2.481 -1.726,1.358 -4.665,3.121 -6.533,3.917 l -3.395,1.447 5.979,2.947 c 7.378,3.636 7.166,3.595 7.653,1.461 z m 60.028,-21.875 c 2.314,-2.508 4.932,-5.715 5.819,-7.126 1.588,-2.527 1.538,-2.641 -3.342,-7.708 -2.724,-2.829 -5.303,-5.287 -5.73,-5.462 -0.427,-0.175 -2.778,1.511 -5.224,3.748 -6.618,6.053 -10.717,7.795 -18.825,8.001 -3.849,0.098 -8.127,-0.026 -9.507,-0.275 -2.294,-0.413 -2.503,-0.152 -2.442,3.047 0.073,3.856 -0.056,3.827 7.935,1.78 6.318,-1.618 14.978,0.625 20.48,5.305 2.083,1.772 4.426,3.228 5.208,3.236 0.782,0.008 3.315,-2.038 5.628,-4.546 z m -88.708,1.777 c 0.62,-0.777 3.444,-2.462 6.276,-3.744 4.224,-1.913 6.275,-2.248 11.429,-1.865 3.455,0.256 7.133,0.901 8.175,1.433 2.365,1.209 3.145,0.436 3.079,-3.05 l -0.052,-2.729 -8.248,0.183 c -6.318,0.141 -9.335,-0.29 -12.895,-1.842 -4.318,-1.882 -11.08,-8.008 -13.735,-12.444 -1.057,-1.765 -1.473,-1.532 -5.691,3.173 -2.503,2.792 -4.539,5.658 -4.526,6.368 0.053,2.775 4.306,9.09 8.384,12.448 4.667,3.843 6.087,4.22 7.804,2.069 z M 219.057,77.988 c 2.38,-0.966 1.888,-2.053 -1.963,-4.333 -1.926,-1.14 -5.637,-5.157 -8.248,-8.926 -4.238,-6.119 -5.091,-6.846 -7.969,-6.792 -7.014,0.134 -7.277,4.369 -0.693,11.146 5.007,5.152 8.827,7.526 13.949,8.671 1.658,0.37 3.09,0.718 3.184,0.772 0.093,0.055 0.876,-0.187 1.74,-0.538 z M 133.21,75.676 c 2.705,-0.595 3.281,-3.055 3.104,-13.244 l -0.143,-8.234 -5.977,0.74 -5.977,0.74 -4.595,-4.423 c -5.709,-5.496 -6.028,-8.378 -1.374,-12.427 4.478,-3.896 6.47,-8.366 6.357,-14.268 -0.081,-4.279 -0.592,-5.453 -3.922,-9.01 -5.071,-5.417 -11.624,-7.686 -20.993,-7.269 -6.125,0.272 -8.236,0.909 -15.414,4.652 -4.575,2.385 -10.818,6.08 -13.874,8.211 -3.056,2.131 -9.275,6.467 -13.82,9.635 C 38.576,43.33 29.218,48.791 11.713,56.96 l -3.953,1.846 2.861,1.43 c 5.235,2.617 12.981,2.6 19.882,-0.044 11.656,-4.466 42.672,-24.799 45.521,-29.842 2.333,-4.13 3.624,-3.099 3.74,2.986 0.222,11.649 11.037,21.668 23.163,21.458 1.787,-0.031 3.258,0.394 3.268,0.944 0.011,0.55 -0.49,1.009 -1.112,1.021 -1.813,0.035 -0.212,7.513 2.346,10.966 2.957,3.99 9.255,7.747 14.497,8.65 3.866,0.665 5.556,0.561 11.284,-0.699 z M 242.57,74.17 c -0.01,-0.537 -1.27,-1.705 -2.799,-2.595 -7.221,-4.203 -12.242,-7.789 -16.063,-11.473 -8.359,-8.06 -8.011,-7.885 -11.454,-5.761 -1.667,1.027 -3.017,2.603 -3,3.5 0.049,2.57 11.639,12.558 17.512,15.093 5.433,2.345 15.841,3.159 15.804,1.236 z M 84.606,74.104 c 1.941,-1.029 5.626,-3.821 8.188,-6.203 7.589,-7.057 7.844,-9.33 1.172,-10.451 -3.66,-0.615 -3.957,-0.43 -10.377,6.44 -3.635,3.89 -7.832,7.898 -9.325,8.906 -3.137,2.119 -3.413,3.278 -0.926,3.891 2.558,0.63 7.224,-0.439 11.268,-2.583 z m 90.454,0.223 c 5.828,-1.586 11.796,-7.055 13.816,-12.66 1.315,-3.65 1.38,-4.794 0.342,-5.997 -0.705,-0.818 -1.115,-1.506 -0.911,-1.528 0.205,-0.023 3.814,-0.204 8.021,-0.403 6.809,-0.322 8.118,-0.715 11.934,-3.585 6.634,-4.991 10.066,-13.473 8.302,-20.52 -0.852,-3.401 2.49,-1.221 4.072,2.657 1.738,4.26 9.744,11.097 26.348,22.498 13.471,9.25 29.74,12.871 36.63,8.153 3.717,-2.545 3.373,-4.116 -1.18,-5.386 C 272.647,54.825 253.767,43.798 232.895,28.621 206.028,9.085 196.733,5.507 181.586,8.873 c -3.187,0.708 -9.213,6.513 -10.723,10.331 -2.768,6.994 -0.731,15.087 5.304,21.073 l 3.808,3.777 -2.181,3.339 c -4.453,6.817 -10.209,9.048 -17.866,6.925 l -2.765,-0.767 0.191,10.078 0.192,10.078 3.267,0.877 c 4.544,1.218 9.13,1.136 14.247,-0.257 z m 83.876,-3.099 c 1.683,-0.682 2.144,-3.434 0.57,-3.404 -1.935,0.037 -22.09,-13.603 -29.321,-19.843 -7.746,-6.684 -9.619,-7.536 -10.602,-4.82 -1.465,4.047 -0.378,6.658 4.867,11.695 12.233,11.748 27.739,19.11 34.486,16.372 z M 67.493,71.005 c 2.459,-1.313 7.911,-5.06 12.116,-8.327 l 7.645,-5.94 -3.281,-3.258 C 82.169,51.688 80.336,50.229 79.9,50.237 79.464,50.245 76.78,52.434 73.935,55.101 67.339,61.287 60.058,66.78 54.7,69.615 c -5.04,2.666 -5.304,3.937 -0.917,4.408 4.804,0.516 8.697,-0.341 13.71,-3.018 z m -16.614,-5.08 c 5.327,-2.67 27.179,-17.117 27.163,-17.958 -0.028,-1.492 -3.54,-9.629 -4.151,-9.618 -0.428,0.008 -6.489,4.467 -13.47,9.908 -11.032,8.601 -24.663,16.822 -27.995,16.886 -2.372,0.045 -0.814,2.02 2.239,2.839 5.782,1.551 10.111,1.002 16.214,-2.057 z M 155.807,28.821 c 6.977,-8.689 1.403,-20.062 -9.729,-19.85 -4.313,0.082 -5.402,0.549 -8.299,3.558 -2.857,2.969 -3.322,4.145 -3.244,8.218 0.081,4.277 0.516,5.144 4.324,8.632 4.02,3.68 4.491,3.847 9.278,3.295 4.152,-0.479 5.506,-1.159 7.67,-3.853 z m -9.535,-0.697 c -0.354,-0.549 0.283,-1.311 1.416,-1.694 3.05,-1.032 5.586,-7.142 3.984,-9.601 -2.565,-3.939 -0.154,-5.649 3.095,-2.194 2.406,2.559 2.221,7.547 -0.394,10.588 -2.412,2.805 -7.084,4.478 -8.101,2.901 z"
         id="path16479"
         inkscape:connector-curvature="0"
         style="fill:#494949;fill-opacity:1" />
    </g>
    <rect
       style="opacity:1;fill:#ffffff;fill-opacity:1;stroke:#600000;stroke-width:1.0751214;stroke-opacity:0"
       id="rect12625"
       width="16.028776"
       height="25.639162"
       x="141.59601"
       y="89.803795" />
    <path
       style="opacity:1;fill:#ffffff;fill-opacity:1;stroke:#600000;stroke-width:0.39293599;stroke-opacity:0"
       d="m 154.65625,209.41523 c -2.40863,-1.84924 -2.67833,-2.42415 -1.65071,-3.51876 2.19002,-2.33282 3.12068,-6.9462 1.88378,-9.3381 -0.84186,-1.62798 -3.1609,-3.38419 -9.8295,-7.44386 -6.8908,-4.19496 -9.97023,-7.08041 -12.0352,-11.2771 -1.26387,-2.5686 -1.3242,-2.89063 -1.31547,-7.02125 0.008,-3.90969 0.10996,-4.52187 1.04952,-6.31775 0.5722,-1.09371 1.64184,-2.70848 2.37697,-3.58838 l 1.33661,-1.59981 2.48867,1.23076 c 3.31459,1.63921 3.58578,2.13416 2.23632,4.08143 -2.03669,2.93894 -2.17366,5.14594 -0.58457,9.41909 0.93935,2.52595 2.48172,3.89326 7.65637,6.78734 4.8818,2.7303 11.45717,7.06575 12.58649,8.29887 0.47528,0.51896 1.492,2.14813 2.25938,3.62037 1.19455,2.29176 1.39457,3.0542 1.39058,5.30056 -0.005,3.0666 -0.75051,6.16786 -1.94685,8.10357 -1.18667,1.92008 -4.26977,4.54006 -5.34258,4.54006 -0.49306,0 -1.64497,-0.57467 -2.55981,-1.27704 z"
       id="path12719"
       inkscape:connector-curvature="0" />
    <path
       style="opacity:1;fill:#ffffff;fill-opacity:1;stroke:#600000;stroke-width:0.39293599;stroke-opacity:0"
       d="m 154.65625,209.41523 c -2.40863,-1.84924 -2.67833,-2.42415 -1.65071,-3.51876 2.33248,-2.48457 3.16837,-7.21261 1.70069,-9.61965 -0.8786,-1.44093 -4.50996,-4.07867 -11.16136,-8.10735 -5.50883,-3.33663 -8.76868,-6.54613 -10.6226,-10.45851 -1.14012,-2.40604 -1.22164,-2.86988 -1.21295,-6.90169 0.0104,-4.8133 0.39766,-5.98813 3.17421,-9.62899 l 1.4638,-1.91945 1.40923,0.58513 c 2.10184,0.8727 4.35624,2.45482 4.35624,3.05718 0,0.29196 -0.37371,1.00594 -0.83048,1.58663 -2.01678,2.56391 -2.16391,6.23595 -0.40882,10.20361 0.89382,2.02064 2.50036,3.31395 8.11568,6.53335 6.00058,3.44028 10.87338,6.76581 12.18295,8.31449 0.60823,0.71928 1.63178,2.42789 2.27455,3.79691 1.09355,2.32909 1.15587,2.71385 0.96937,5.98482 -0.15491,2.71679 -0.4337,3.97475 -1.2512,5.64568 -1.21665,2.48674 -4.57363,5.72364 -5.93596,5.72364 -0.50011,0 -1.6578,-0.57467 -2.57264,-1.27704 z"
       id="path12721"
       inkscape:connector-curvature="0" />
    <path
       style="opacity:1;fill:#ffffff;fill-opacity:1;stroke:#600000;stroke-width:0.39293599;stroke-opacity:0"
       d="m 155.57086,126.59173 c -0.84717,-0.34052 -0.88411,-0.55003 -0.88411,-5.01519 l 0,-4.65982 1.93416,0.39621 c 3.30825,0.67768 5.87503,-0.48582 8.07498,-3.66035 l 1.11966,-1.61568 -1.17619,-1.26282 c -2.11183,-2.26737 -2.8841,-3.51442 -3.51026,-5.66835 -0.91302,-3.14067 -0.24621,-5.560917 2.20835,-8.015481 2.12891,-2.128908 3.71602,-2.701637 7.49546,-2.704835 4.49658,-0.0038 8.52284,1.715832 15.80074,6.748576 16.13465,11.15727 22.95559,15.28312 29.25288,17.69445 0.91849,0.35171 1.66998,0.83311 1.66998,1.06979 0,0.23667 -0.57467,0.7807 -1.27704,1.20895 -2.4998,1.52415 -7.91079,0.89363 -13.07666,-1.52377 -5.47956,-2.5642 -14.47864,-9.43942 -17.08577,-13.05339 -2.27208,-3.14954 -2.94257,-3.43238 -2.5918,-1.09332 0.49493,3.30043 -1.47639,7.49662 -4.5092,9.59835 -1.28066,0.88751 -2.18552,1.12738 -5.34999,1.41828 -2.09475,0.19256 -3.88762,0.4291 -3.98417,0.52565 -0.0966,0.0965 0.0369,0.43155 0.29661,0.74445 1.34589,1.6217 -2.08038,6.68179 -5.64983,8.34395 -1.54397,0.71897 -2.62823,0.91722 -4.92667,0.90078 -1.62086,-0.0116 -3.34487,-0.18098 -3.83113,-0.37643 z"
       id="path12723"
       inkscape:connector-curvature="0" />
    <path
       style="opacity:1;fill:#0068e0;fill-opacity:1;stroke:#600000;stroke-width:0.22573364;stroke-opacity:0"
       d="m 155.67014,210.20765 c -1.50012,-0.85756 -2.71452,-1.88931 -3.09908,-2.63295 -0.31221,-0.60375 -0.31163,-0.7186 0.006,-1.16075 1.6106,-2.24276 2.00185,-2.92695 2.39178,-4.18265 0.49387,-1.59045 0.57158,-3.50912 0.19789,-4.88593 -0.48741,-1.79574 -3.48322,-4.19433 -10.58762,-8.47693 -4.11452,-2.48027 -5.51166,-3.4683 -7.30709,-5.16742 -2.38339,-2.25556 -4.21076,-4.96736 -5.11352,-7.58842 -0.39472,-1.14605 -0.462,-1.90251 -0.46359,-5.21275 -0.002,-4.2635 0.23582,-5.40234 1.58096,-7.56878 0.8463,-1.36303 2.97596,-4.02181 3.22143,-4.02181 0.10413,0 1.17789,0.49618 2.38613,1.10264 1.98114,0.99439 3.43834,2.06008 3.43834,2.51455 0,0.0933 -0.3427,0.66782 -0.76156,1.27674 -2.30649,3.35304 -2.49346,5.59637 -0.83533,10.0224 0.88813,2.37065 2.21467,3.47796 8.3689,6.98583 3.61991,2.06332 8.41795,5.1405 10.43351,6.69143 1.50427,1.15751 2.74181,2.87564 4.08507,5.67148 l 0.94417,1.96517 -0.0232,2.70881 c -0.0262,3.06302 -0.4037,4.88255 -1.46456,7.05932 -1.18752,2.43665 -4.44758,5.47327 -5.86837,5.46617 -0.29952,-0.002 -0.9881,-0.25626 -1.53019,-0.56615 z"
       id="path12775"
       inkscape:connector-curvature="0" />
    <path
       style="opacity:1;fill:#0068e0;fill-opacity:1;stroke:#600000;stroke-width:0.22573364;stroke-opacity:0"
       d="m 156.95045,183.46669 c -2.21935,-0.84245 -4.0193,-2.23039 -4.0193,-3.09927 0,-0.33301 0.50142,-1.06678 1.35868,-1.98827 2.67504,-2.87547 3.74928,-5.38411 3.55934,-8.31204 -0.16139,-2.4877 -1.14362,-4.0509 -3.56362,-5.67143 -0.80699,-0.54039 -5.07336,-2.76422 -9.48081,-4.94184 -4.40745,-2.17762 -8.93214,-4.56537 -10.05487,-5.30612 -3.87824,-2.55876 -6.4897,-6.03942 -7.09677,-9.45883 -0.8119,-4.57311 2.555,-9.1901 7.70049,-10.55963 2.43705,-0.64864 6.58704,-0.24728 7.70171,0.74486 1.03041,0.91713 -0.20734,2.95809 -2.48698,4.10086 -2.38924,1.19771 -4.7102,1.03835 -6.59681,-0.45292 -0.61455,-0.48578 -1.22,-0.88323 -1.34544,-0.88323 -0.38549,0 -0.53171,1.10195 -0.38553,2.90549 0.19088,2.35507 0.46535,3.18898 1.50965,4.58664 2.01108,2.69159 6.01127,4.89919 13.19902,7.28418 5.27768,1.75121 7.54712,2.6872 10.51607,4.33715 1.19015,0.66141 2.28907,1.20256 2.44204,1.20256 0.37316,0 3.35876,3.07391 4.674,4.81224 1.88559,2.49218 2.00672,2.91703 2.00672,7.03878 0,3.36739 -0.0428,3.73631 -0.63235,5.45315 -0.60761,1.76936 -1.79785,3.76269 -3.05929,5.12346 -0.84007,0.90622 -2.91285,2.47963 -3.98507,3.02498 -0.8822,0.44871 -0.93094,0.45018 -1.96088,0.0592 z M 139.0886,135.52953 c 0.0707,-0.0707 0.0684,-0.28532 -0.005,-0.47691 -0.18946,-0.49374 -2.684,-0.48872 -3.17911,0.006 -0.43314,0.43314 -0.43327,0.43742 -0.0259,0.84476 0.28038,0.28037 0.53146,0.28649 1.70519,0.0416 0.75701,-0.15798 1.43425,-0.34508 1.50496,-0.4158 z"
       id="path12777"
       inkscape:connector-curvature="0" />
    <path
       style="opacity:1;fill:#0068e0;fill-opacity:1;stroke:#600000;stroke-width:0.22573364;stroke-opacity:0"
       d="m 157.06846,154.58409 c -2.26431,-1.13355 -3.40449,-2.04044 -3.12792,-2.48793 0.0846,-0.13683 1.11905,-0.69987 2.29887,-1.2512 5.14841,-2.40586 9.04499,-6.36683 9.88152,-10.0448 0.3619,-1.59114 0.4784,-3.83853 0.19899,-3.83853 -0.0854,0 -0.72027,0.44169 -1.41084,0.98154 -1.80863,1.4139 -2.04646,1.50153 -4.07532,1.50153 -2.81309,0 -3.64864,-0.29231 -4.97083,-1.739 -0.61965,-0.678 -1.18931,-1.4824 -1.2659,-1.78756 -0.28889,-1.15105 1.46348,-2.20733 4.24371,-2.55799 3.73373,-0.47091 6.66817,0.52633 9.23358,3.13795 2.05082,2.08776 2.32722,2.65787 2.29365,4.73098 -0.0149,0.91933 -0.14771,2.18908 -0.29515,2.82167 -0.36023,1.54547 -1.53001,4.06259 -2.66412,5.73264 -1.9665,2.8958 -5.74203,5.91413 -7.3978,5.91413 -0.4096,0 -1.67426,-0.47855 -2.94244,-1.11343 z m 4.76855,-19.0131 c 0.64162,-0.29234 0.76673,-0.97054 0.21789,-1.18115 -0.7185,-0.27571 -2.51716,-0.14308 -2.80773,0.20704 -0.34036,0.4101 -0.20018,0.58417 0.75436,0.93674 0.93714,0.34614 1.14835,0.35044 1.83548,0.0374 z"
       id="path12779"
       inkscape:connector-curvature="0" />
    <path
       style="opacity:1;fill:#0068e0;fill-opacity:1;stroke:#600000;stroke-width:0.22573364;stroke-opacity:0"
       d="m 127.57855,134.91122 c -1.55609,-1.03071 -3.8917,-3.67083 -4.70006,-5.31283 l -0.70992,-1.44206 0.79991,-1.18426 c 0.43995,-0.65134 1.42023,-1.84453 2.17841,-2.65153 l 1.37849,-1.46727 0.61824,0.79007 c 1.23076,1.57285 4.5068,4.64383 5.70895,5.35162 1.94288,1.14389 3.41891,1.42039 7.58258,1.42039 4.13679,0 4.11233,-0.0117 3.80365,1.81539 -0.17129,1.01384 -0.23836,1.03164 -2.07542,0.55079 -2.20402,-0.5769 -5.60824,-0.68778 -7.17072,-0.23355 -1.71374,0.49819 -3.72505,1.51439 -4.71133,2.38036 -0.9721,0.85351 -1.3924,0.85085 -2.70278,-0.0171 z"
       id="path12781"
       inkscape:connector-curvature="0" />
    <path
       style="opacity:1;fill:#0068e0;fill-opacity:1;stroke:#600000;stroke-width:0.22573364;stroke-opacity:0"
       d="m 137.01693,127.66811 c -2.00784,-0.38012 -4.36907,-1.69021 -5.99422,-3.32579 -1.24302,-1.251 -1.55878,-1.73339 -1.97517,-3.01749 -0.62649,-1.93204 -0.63859,-2.78096 -0.0442,-3.0991 0.5409,-0.28948 0.58966,-0.8016 0.0944,-0.99165 -0.19638,-0.0754 -0.792,-0.13701 -1.32359,-0.13701 -1.64096,0 -3.32907,-0.41695 -4.99439,-1.23357 -3.8309,-1.87853 -5.94638,-5.033 -6.31687,-9.41929 -0.22266,-2.63605 -0.58376,-3.19641 -1.40082,-2.17376 -1.86475,2.33395 -4.02167,4.10634 -9.19643,7.55691 -6.191459,4.1285 -11.546782,7.1337 -14.42402,8.09418 -3.254688,1.08649 -6.823784,0.97461 -9.29119,-0.29124 l -0.797622,-0.40921 5.71014,-2.86288 c 6.828519,-3.42361 10.439165,-5.6259 19.451112,-11.86405 7.13439,-4.938492 9.35124,-6.32931 13.0347,-8.177755 2.95862,-1.484704 4.23394,-1.792703 7.42297,-1.792703 4.23955,0 6.75145,0.910066 9.16269,3.319655 1.80736,1.806122 2.21788,2.832573 2.08069,5.202473 -0.13782,2.38069 -0.85261,3.88384 -2.85076,5.99494 -0.95607,1.0101 -1.62763,1.93105 -1.72224,2.3618 -0.24717,1.12534 0.51566,2.43827 2.61952,4.50855 l 1.89164,1.86145 2.77728,-0.35947 c 1.5275,-0.19771 2.8463,-0.29045 2.93067,-0.20608 0.0844,0.0844 0.1534,1.94798 0.1534,4.14136 0,5.63 -0.0898,5.81127 -3.14529,6.34843 -1.55052,0.27258 -2.29016,0.26707 -3.85245,-0.0287 z"
       id="path12783"
       inkscape:connector-curvature="0" />
    <path
       style="opacity:1;fill:#0068e0;fill-opacity:1;stroke:#600000;stroke-width:0.22573364;stroke-opacity:0"
       d="m 155.94274,126.78081 c -0.51631,-0.12174 -0.99553,-0.36932 -1.06493,-0.55017 -0.0694,-0.18085 -0.19659,-2.37665 -0.28265,-4.87954 l -0.15647,-4.55072 0.76993,0.16172 c 3.11291,0.65387 4.54084,0.58712 6.24006,-0.29168 0.98427,-0.50905 2.62512,-2.16393 3.62757,-3.65858 l 0.69606,-1.03783 -1.02365,-0.99378 c -2.67079,-2.59286 -3.96909,-5.25634 -4.00544,-8.21725 -0.0192,-1.56004 0.0666,-1.98699 0.63006,-3.136344 0.73458,-1.498461 2.83672,-3.730771 4.13871,-4.394997 1.39604,-0.712209 3.45235,-1.008265 6.10926,-0.879576 4.80455,0.23271 8.64674,2.124364 18.64694,9.180567 11.42734,8.06321 18.4798,12.32637 24.2682,14.66995 1.5409,0.62387 2.9058,1.23849 3.03313,1.36581 0.30621,0.30621 -0.59018,1.26731 -1.72449,1.84895 -2.62499,1.34603 -8.2814,0.43419 -13.46922,-2.17129 -5.5578,-2.7913 -15.31875,-10.48046 -16.67734,-13.13755 -0.54838,-1.07249 -1.48914,-2.10399 -1.91892,-2.10399 -0.26538,0 -0.30313,0.34094 -0.20748,1.87399 0.19139,3.06778 -0.6916,5.38554 -2.97071,7.79783 -2.06547,2.18616 -3.18099,2.59744 -7.98812,2.94513 -1.52812,0.11053 -2.83138,0.25394 -2.89614,0.3187 -0.0647,0.0647 0.0558,0.38264 0.26799,0.70642 1.25977,1.92265 -1.78737,6.5889 -5.50206,8.42561 -1.68705,0.83416 -1.74289,0.8448 -4.65454,0.88713 -1.62085,0.0236 -3.36944,-0.0568 -3.88575,-0.17851 z"
       id="path12785"
       inkscape:connector-curvature="0" />
    <path
       style="opacity:1;fill:#0068e0;fill-opacity:1;stroke:#600000;stroke-width:0.22573364;stroke-opacity:0"
       d="m 182.27652,128.29512 c -2.51716,-0.73211 -3.96151,-1.61769 -6.11421,-3.74884 -2.02448,-2.00423 -3.06675,-3.68134 -2.80343,-4.51101 0.35283,-1.11167 2.92807,-1.53435 4.03644,-0.66251 0.32851,0.25841 1.30486,1.42367 2.16966,2.58948 2.13315,2.8756 3.02804,3.82996 4.57877,4.88304 0.72553,0.4927 1.28096,1.0104 1.23427,1.15045 -0.0467,0.14005 -0.38269,0.3755 -0.74668,0.52322 -0.55341,0.22459 -0.93912,0.18793 -2.35482,-0.22383 z"
       id="path12787"
       inkscape:connector-curvature="0" />
    <path
       style="opacity:1;fill:#0068e0;fill-opacity:1;stroke:#600000;stroke-width:0.22573364;stroke-opacity:0"
       d="m 192.886,126.98681 c -2.47425,-0.22804 -4.25205,-0.86976 -6.43678,-2.32343 -2.28308,-1.51911 -5.92503,-4.90419 -6.1224,-5.6906 -0.16034,-0.63883 0.60224,-1.56522 1.83487,-2.22904 l 0.75432,-0.40623 0.86536,0.65705 c 0.47594,0.36138 1.82427,1.55819 2.99627,2.65956 1.26578,1.18951 3.37363,2.81385 5.19187,4.00091 3.65363,2.38534 4.34238,2.90143 4.19352,3.1423 -0.17705,0.28647 -1.43535,0.35922 -3.27703,0.18948 z"
       id="path12789"
       inkscape:connector-curvature="0" />
    <path
       style="opacity:1;fill:#0068e0;fill-opacity:1;stroke:#600000;stroke-width:0.22573364;stroke-opacity:0"
       d="m 200.4675,125.10045 c -1.79742,-0.45076 -5.08103,-2.03127 -7.26234,-3.49561 -3.50918,-2.35576 -7.02486,-5.56054 -7.84964,-7.15549 -0.68972,-1.33376 -0.35329,-3.44709 0.54874,-3.44709 0.57792,0 1.32395,0.50173 3.74939,2.5216 3.9082,3.2547 11.81827,8.72848 14.16773,9.8041 1.35323,0.61953 1.50697,0.91962 0.79928,1.56008 -0.60393,0.54654 -2.44528,0.64072 -4.15316,0.21241 z"
       id="path12791"
       inkscape:connector-curvature="0" />
    <path
       style="opacity:1;fill:#0068e0;fill-opacity:1;stroke:#600000;stroke-width:0.22573364;stroke-opacity:0"
       d="m 112.86343,127.61311 c -0.44174,-0.35081 -0.43201,-0.37406 0.45147,-1.0794 0.49661,-0.39647 2.47743,-2.26362 4.4018,-4.14921 1.92438,-1.8856 3.73232,-3.5481 4.01763,-3.69445 0.66277,-0.33996 2.7356,0.0541 3.48097,0.66179 l 0.51495,0.41982 -0.44055,0.82568 c -0.55539,1.04092 -3.72009,4.05127 -5.52859,5.25893 -2.54149,1.69715 -5.89676,2.55173 -6.89768,1.75684 z"
       id="path12793"
       inkscape:connector-curvature="0" />
    <path
       style="opacity:1;fill:#0068e0;fill-opacity:1;stroke:#600000;stroke-width:0.22573364;stroke-opacity:0"
       d="m 102.62322,126.33558 c -0.73756,-0.29532 -0.4471,-0.59047 1.98744,-2.01947 2.61677,-1.53597 5.16692,-3.46588 8.4834,-6.4201 1.48715,-1.32471 2.87804,-2.50514 3.09087,-2.62318 0.3098,-0.17182 0.70321,0.0837 1.97291,1.28149 0.87227,0.82286 1.52962,1.58725 1.46076,1.69865 -0.0688,0.11141 -1.81319,1.4697 -3.87631,3.01843 -3.87486,2.90875 -6.27398,4.32237 -8.39387,4.94587 -1.3386,0.3937 -3.87858,0.4573 -4.7252,0.11831 z"
       id="path12795"
       inkscape:connector-curvature="0" />
    <path
       style="opacity:1;fill:#0068e0;fill-opacity:1;stroke:#600000;stroke-width:0.22573364;stroke-opacity:0"
       d="m 95.911311,123.84681 c -1.458775,-0.18482 -2.689038,-0.58836 -3.023939,-0.99189 -0.212183,-0.25566 -0.0795,-0.36208 0.715578,-0.57395 2.48845,-0.66311 7.60755,-3.87882 14.76145,-9.27282 2.61583,-1.97231 4.86095,-3.58603 4.98916,-3.58603 0.24187,0 1.53379,2.63003 1.87313,3.81327 0.19173,0.66853 0.16208,0.69736 -2.89064,2.81019 -3.43679,2.37866 -8.65041,5.69012 -10.17302,6.46145 -2.29665,1.16345 -4.283205,1.58918 -6.251719,1.33978 z"
       id="path12797"
       inkscape:connector-curvature="0" />
    <path
       style="opacity:1;fill:#0068e0;fill-opacity:1;stroke:#600000;stroke-width:0.22573364;stroke-opacity:0"
       d="m 152.31559,230.93377 c -0.28409,-0.43315 -0.42276,-1.17636 -0.47783,-2.56099 -0.0677,-1.7023 2.2e-4,-2.14524 0.53338,-3.47793 0.65848,-1.64594 0.65793,-2.41996 -0.003,-3.81216 -0.91986,-1.93847 -3.00191,-3.66759 -7.11222,-5.90663 -4.48833,-2.44496 -8.37657,-6.02151 -9.81379,-9.02708 -1.23715,-2.58717 -1.78863,-4.8684 -1.80083,-7.44921 -0.0125,-2.64668 0.2704,-3.7986 1.57998,-6.4334 1.75822,-3.53741 1.98599,-3.61094 5.23712,-1.69052 2.31954,1.37013 3.44312,2.26345 3.44312,2.73751 0,0.15692 -0.38093,1.01457 -0.84651,1.90587 -0.79783,1.52738 -0.8465,1.7389 -0.8465,3.67921 0,1.80223 0.0795,2.22047 0.63785,3.35761 0.97279,1.98105 4.00859,4.53306 9.33013,7.84327 2.69976,1.67937 5.82604,4.7995 6.78533,6.77201 1.24094,2.55162 1.51281,4.9957 0.84218,7.57109 -0.4638,1.7811 -1.24415,3.07301 -2.90601,4.81102 -2.17345,2.27303 -3.80226,2.87027 -4.58269,1.68033 z"
       id="path12799"
       inkscape:connector-curvature="0" />
    <path
       style="opacity:1;fill:#0068e0;fill-opacity:1;stroke:#600000;stroke-width:0.22573364;stroke-opacity:0"
       d="m 154.1607,248.38398 c 0.44418,-1.39493 0.83125,-4.67479 0.69532,-5.89188 -0.22061,-1.97536 -0.82395,-3.12267 -2.5414,-4.83272 -1.27921,-1.27371 -1.98926,-1.74598 -4.36189,-2.9012 -5.57869,-2.71625 -9.09648,-6.02927 -10.17613,-9.58379 -0.86992,-2.864 -0.3273,-7.39632 1.01852,-8.50747 0.50992,-0.42101 1.45193,-0.12945 3.65578,1.1315 l 1.67664,0.9593 0,2.82301 c 0,2.4332 0.0675,2.96238 0.48862,3.83237 0.71891,1.48506 3.03775,3.8202 6.14062,6.18378 3.37253,2.56899 5.25923,4.47384 6.26108,6.32134 0.69161,1.27539 0.76656,1.59185 0.76656,3.2365 0,1.68803 -0.0704,1.96494 -0.95155,3.7432 -0.85779,1.73109 -3.00556,4.53302 -2.67217,3.48606 z"
       id="path12801"
       inkscape:connector-curvature="0" />
    <path
       style="opacity:1;fill:#0068e0;fill-opacity:1;stroke:#600000;stroke-width:0.22573364;stroke-opacity:0"
       d="m 169.71238,135.66366 c -0.50418,-0.34143 -1.54316,-1.04409 -2.30883,-1.56149 -2.96673,-2.00473 -6.25092,-2.53577 -10.17706,-1.64559 -2.66348,0.60389 -2.75606,0.56124 -2.66102,-1.22589 l 0.0587,-1.1034 4.28894,-0.0386 c 3.36648,-0.0303 4.54157,-0.12187 5.46355,-0.42593 1.33892,-0.44156 3.81026,-2.07265 5.88203,-3.88214 0.77732,-0.67891 1.54527,-1.23438 1.70657,-1.23438 0.48605,0 4.89368,4.62436 4.89368,5.13431 0,1.04947 -4.87679,6.60383 -5.79824,6.60383 -0.23737,0 -0.84411,-0.27934 -1.3483,-0.62076 z"
       id="path12803"
       inkscape:connector-curvature="0" />
    <path
       style="opacity:1;fill:#0068e0;fill-opacity:1;stroke:#600000;stroke-width:0.22573364;stroke-opacity:0"
       d="m 141.70101,247.04785 c -1.31314,-1.92889 -1.83838,-3.85806 -1.89752,-6.96947 -0.0283,-1.48991 0.0477,-1.85712 0.56896,-2.7465 0.69963,-1.19382 1.3679,-1.725 2.16875,-1.72381 0.70711,0.001 2.03781,0.7872 2.03781,1.2039 0,0.16965 -0.45989,1.00865 -1.02198,1.86444 -1.38274,2.10525 -1.54063,2.81304 -1.39253,6.24233 0.0684,1.58295 0.1063,2.87741 0.0843,2.87656 -0.022,-8.6e-4 -0.2685,-0.3372 -0.54779,-0.74745 z"
       id="path12859"
       inkscape:connector-curvature="0" />
  </g>
  <g
     inkscape:groupmode="layer"
     id="layer4"
     inkscape:label="whitespace"
     transform="translate(-78.206405,-38.712028)">
    <rect
       style="opacity:1;fill:#ffffff;fill-opacity:1;stroke:#600000;stroke-opacity:0"
       id="rect12630"
       width="11.428578"
       height="12.207805"
       x="141.03896"
       y="251.32468" />
  </g>
  <g
     inkscape:groupmode="layer"
     id="layer3"
     inkscape:label="arrows"
     transform="translate(-78.206405,-38.712028)">
    <path
       style="fill:url(#linearGradient31550);fill-opacity:1;fill-rule:evenodd;stroke:none;stroke-width:1px;stroke-linecap:butt;stroke-linejoin:miter;stroke-opacity:1"
       d="m 138.64069,81.357636 0,17.264006 c 2.96876,5.399408 1.19575,9.314428 0,10.879188 -0.19242,0.50062 -0.92087,1.33111 -1.44315,1.87296 -0.48105,0.81674 -0.7147,1.09745 -0.94835,1.58433 0.0674,0.58413 1.70165,2.40525 3.41836,2.86568 1.11197,0.21303 1.72914,-0.23365 2.59371,-0.35048 l 3.19158,-0.0412 0.19387,14.96749 5.96647,-0.24739 0.7755,-14.7201 c 6.20976,0.20614 9.6157,0.1237 10.17658,-1.77301 -0.86589,-1.41357 -2.02041,-2.82714 -2.68013,-4.69427 -0.61849,-2.11453 -1.40191,-4.97125 0,-8.94125 l 0,-18.665924 21.26506,0 -31.89759,-42.645638 -31.89759,42.645638 z"
       id="path26997"
       inkscape:connector-curvature="0"
       sodipodi:nodetypes="ccccccccccccccccccc" />
    <path
       sodipodi:nodetypes="ccccccccccccc"
       inkscape:connector-curvature="0"
       id="path31603"
       d="m 160.13253,276.34882 0,-34.11568 c -0.77022,0.0232 -0.84552,8.10748 -7.31414,9.03405 l -3.73465,0.0751 c -0.29415,-8.61553 -0.5188,-11.67164 -0.67396,-12.50399 -0.40504,0.66412 -0.39312,3.76049 -0.3812,12.41627 l -3.79276,0.15162 c -2.76235,-1.52884 -5.24672,-4.16956 -5.36835,-9.17304 l 0,34.11568 -21.26506,0 31.89759,42.64564 31.89759,-42.64564 z"
       style="fill:url(#linearGradient12593);fill-opacity:1;fill-rule:evenodd;stroke:none;stroke-width:1px;stroke-linecap:butt;stroke-linejoin:miter;stroke-opacity:1" />
  </g>
</svg>
